<?xml version="1.0" encoding="UTF-8" standalone="no"?>
<!-- Generator: Adobe Illustrator 19.0.0, SVG Export Plug-In . SVG Version: 6.00 Build 0)  -->

<svg
   version="1.1"
   id="Layer_1"
   x="0px"
   y="0px"
   viewBox="0 0 377.95312 377.95117"
   xml:space="preserve"
   sodipodi:docname="back_silkscreen_extra.svg"
   width="377.95312"
   height="377.95117"
   inkscape:version="1.3.2 (091e20ef0f, 2023-11-25)"
   xmlns:inkscape="http://www.inkscape.org/namespaces/inkscape"
   xmlns:sodipodi="http://sodipodi.sourceforge.net/DTD/sodipodi-0.dtd"
   xmlns="http://www.w3.org/2000/svg"
   xmlns:svg="http://www.w3.org/2000/svg"><defs
   id="defs1">
	
</defs><sodipodi:namedview
   id="namedview1"
   pagecolor="#ffffff"
   bordercolor="#666666"
   borderopacity="1.0"
   inkscape:showpageshadow="2"
   inkscape:pageopacity="0.0"
   inkscape:pagecheckerboard="0"
   inkscape:deskcolor="#d1d1d1"
   inkscape:zoom="2.6881779"
   inkscape:cx="189.34759"
   inkscape:cy="188.97559"
   inkscape:window-width="1920"
   inkscape:window-height="1216"
   inkscape:window-x="0"
   inkscape:window-y="0"
   inkscape:window-maximized="1"
   inkscape:current-layer="Layer_1" />

<path
   style="font-size:13.3333px;line-height:1.25;font-family:'Alegreya Sans';-inkscape-font-specification:'Alegreya Sans';letter-spacing:0.02px;word-spacing:0px"
   d="m 358.11109,323.83489 q -1.25333,0 -1.93333,0.65333 -0.67999,0.64 -0.67999,1.85333 0,1.42666 0.85333,2.23999 0.84,0.81333 2.33332,0.81333 h 1.01334 v 0.33334 l -0.0533,2.66666 h 1.07999 l -0.0667,-2.57333 0.0667,-5.97332 z m 0.17334,4.69332 q -0.82667,-0.13333 -1.25333,-0.66666 -0.44,-0.53334 -0.44,-1.42667 0,-1.65333 1.75999,-1.71999 l 1.29333,0.04 0.04,3.74665 z m -7.56666,-4.74665 q -1.34666,0 -2.33333,0.63999 l 0.21334,0.97333 0.12,0.0267 q 0.89333,-0.74666 2.05333,-0.74666 1.26666,0 1.94666,0.87999 0.68,0.86667 0.68,2.54666 0,1.69333 -0.68,2.58666 -0.68,0.89334 -1.92,0.89334 -0.58666,0 -1.16,-0.21334 -0.58666,-0.21333 -1.06666,-0.6 l -0.13333,0.0667 0.0933,1.01333 q 1.15999,0.64 2.35999,0.64 1.72,0 2.66666,-1.10666 0.94667,-1.12 0.94667,-3.18666 0,-2.12 -0.98667,-3.26666 -0.98666,-1.14666 -2.79999,-1.14666 z m -7.48665,4.15998 q -1.81333,0.36 -1.81333,2.06667 0,1.21333 0.88,1.82666 0.88,0.61333 2.62666,0.61333 1.17333,0 1.87999,-0.0533 h 0.0133 l -0.0667,-2.57333 0.0667,-5.97332 -2.37332,-0.0133 q -1.2,0 -1.84,0.53333 -0.65333,0.53333 -0.65333,1.54666 0,0.72 0.33333,1.24 0.33333,0.52 0.94667,0.78666 z m -0.18667,-1.90666 q 0,-0.69333 0.38667,-0.99999 0.37333,-0.32 1.22666,-0.32 h 1.08 l 0.0267,2.86666 -1.46666,0.04 q -1.25333,-0.29334 -1.25333,-1.58667 z m 1.72,5.51999 q -1.09333,0 -1.68,-0.41333 -0.58666,-0.41334 -0.58666,-1.18667 0,-1.30666 1.63999,-1.49333 l 1.64,0.0133 0.0133,1.25333 -0.04,1.78666 q -0.52,0.04 -0.98667,0.04 z"
   id="text1"
   aria-label="PCB" /><path
   id="rect2"
   style="stroke-width:2.80249;stroke-linecap:round;stroke-linejoin:round"
   d="m 359.05513,334.48819 h -34.01575 c -3.14079,0 -5.66929,2.5285 -5.66929,5.66929 v 18.89764 c 0,3.14079 2.5285,5.66929 5.66929,5.66929 h 34.01575 c 3.14079,0 5.66929,-2.5285 5.66929,-5.66929 v -18.89764 c 0,-3.14079 -2.5285,-5.66929 -5.66929,-5.66929 z" /><path
   id="rect3"
   style="stroke-width:2.80249;stroke-linecap:round;stroke-linejoin:round"
   d="m 52.913387,334.48819 h -34.01575 c -3.14078,0 -5.66929,2.5285 -5.66929,5.66929 v 18.89764 c 0,3.14079 2.52851,5.66929 5.66929,5.66929 h 34.01575 c 3.14079,0 5.66929,-2.5285 5.66929,-5.66929 v -18.89764 c 0,-3.14079 -2.5285,-5.66929 -5.66929,-5.66929 z" /><path
   style="font-size:13.3333px;line-height:1.25;font-family:'Alegreya Sans';-inkscape-font-specification:'Alegreya Sans';letter-spacing:0.02px;word-spacing:0px"
   d="m 31.981647,326.19488 q -0.76,0 -1.46666,0.29334 l 0.14666,0.86666 0.16,0.04 q 0.66667,-0.44 1.28,-0.44 0.45333,0 0.73333,0.25333 0.28,0.25334 0.28,0.61334 0,0.35999 -0.28,0.58666 -0.29333,0.21333 -0.89333,0.49333 -0.52,0.24 -0.82666,0.44 -0.32,0.18667 -0.54667,0.50667 -0.22667,0.32 -0.22667,0.78666 0,0.49333 0.25334,0.92 0.25333,0.42666 0.74666,0.69333 0.49333,0.25333 1.17333,0.25333 0.93333,0 1.77333,-0.44 l -0.13333,-0.90666 -0.12,-0.08 q -0.37333,0.32 -0.8,0.49333 -0.44,0.17334 -0.82666,0.17334 -0.49334,0 -0.8,-0.26667 -0.30667,-0.28 -0.30667,-0.65333 0,-0.36 0.29333,-0.57333 0.28,-0.22667 0.88,-0.50667 0.52,-0.24 0.84,-0.42667 0.32,-0.19999 0.54667,-0.53333 0.22666,-0.33333 0.22666,-0.82666 0,-0.77333 -0.56,-1.26667 -0.57333,-0.49333 -1.54666,-0.49333 z m -3.35334,3.61333 0.04,-3.45333 -1.02666,-0.0933 0.0267,3.45332 -0.0267,2.68 h 1.04 z m -0.49333,-6.25332 q -0.26666,0 -0.42666,0.16 -0.16,0.16 -0.16,0.44 0,0.29333 0.17333,0.46666 0.16,0.17334 0.45333,0.17334 0.28,0 0.44,-0.16 0.14667,-0.16 0.14667,-0.45334 0,-0.27999 -0.16,-0.45333 -0.17333,-0.17333 -0.46667,-0.17333 z m -3.72666,6.15998 -0.0667,2.68 h 1.05333 l -0.08,-2.6 0.0667,-6.66665 -1.05333,-0.0933 z m -3.31332,0 -0.0667,2.68 h 1.05333 l -0.08,-2.6 0.0667,-6.66665 -1.05333,-0.0933 z m -1.30667,-0.62666 q -0.92,1.24 -2.55999,3.11999 v 0.12 q 0.25333,0.08 0.56,0.12 0.29333,0.0533 0.38666,0.0667 l 0.13334,-0.0533 q 1.50666,-1.78666 2.53332,-3.27999 v -0.0933 l -1.90666,-2.25333 -0.34666,-0.54666 h -1.2 z"
   id="text3"
   aria-label="silk" /></svg>
