<?xml version="1.0" encoding="UTF-8" standalone="no"?>
<!-- Generator: Adobe Illustrator 19.0.0, SVG Export Plug-In . SVG Version: 6.00 Build 0)  -->

<svg
   version="1.1"
   id="Layer_1"
   x="0px"
   y="0px"
   viewBox="0 0 377.95312 377.95117"
   xml:space="preserve"
   sodipodi:docname="front_silkscreen_extra.svg"
   width="377.95312"
   height="377.95117"
   inkscape:version="1.3.2 (091e20ef0f, 2023-11-25)"
   xmlns:inkscape="http://www.inkscape.org/namespaces/inkscape"
   xmlns:sodipodi="http://sodipodi.sourceforge.net/DTD/sodipodi-0.dtd"
   xmlns="http://www.w3.org/2000/svg"
   xmlns:svg="http://www.w3.org/2000/svg"><defs
   id="defs1">
	
</defs><sodipodi:namedview
   id="namedview1"
   pagecolor="#ffffff"
   bordercolor="#666666"
   borderopacity="1.0"
   inkscape:showpageshadow="2"
   inkscape:pageopacity="0.0"
   inkscape:pagecheckerboard="0"
   inkscape:deskcolor="#d1d1d1"
   inkscape:zoom="2.6881779"
   inkscape:cx="189.16159"
   inkscape:cy="188.97559"
   inkscape:window-width="1920"
   inkscape:window-height="1216"
   inkscape:window-x="0"
   inkscape:window-y="0"
   inkscape:window-maximized="1"
   inkscape:current-layer="Layer_1" />

<path
   style="font-weight:500;font-size:13.3333px;line-height:1.25;font-family:'Alegreya Sans';-inkscape-font-specification:'Alegreya Sans Medium';letter-spacing:0.02px;word-spacing:0px"
   d="m 82.881434,193.1721 -1.040759,-0.0694 0.06423,-1.5474 -0.0073,-0.71996 -4.787086,-0.0179 -2.692507,0.0941 -0.01413,-1.38659 2.574008,0.0538 4.90572,-0.11666 -0.0073,-0.71997 -0.09603,-1.57243 0.119042,-0.0945 1.04103,0.0961 0.06033,5.91968 z m -5.775316,1.24673 3.472882,-0.22589 0.191073,1.32501 -3.477869,0.13269 -2.687341,0.18386 -0.07125,-1.33142 z m 6.464981,0.29497 q 0.01781,0.33286 -0.171928,0.52994 -0.176425,0.19638 -0.522596,0.2149 -0.359485,0.0192 -0.5832,-0.16908 -0.223714,-0.18831 -0.242238,-0.53448 -0.01852,-0.34617 0.170503,-0.55657 0.18974,-0.19709 0.53591,-0.21561 0.346171,-0.0185 0.569885,0.16979 0.224428,0.20163 0.243664,0.56111 z m -4.46066,6.54128 q 0.505567,-0.0359 0.759653,-0.31523 0.268651,-0.26734 0.223352,-0.7318 -0.07507,-0.76968 -0.95153,-1.51478 l -1.620275,0.14463 -2.672843,0.34106 -0.132014,-1.35358 2.568941,-0.17017 3.457086,-0.40415 0.244975,1.27558 -0.890406,0.0734 0.0091,0.0929 q 0.766418,0.71565 1.101387,1.54036 0.09966,1.02182 -0.314329,1.58466 -0.412691,0.57611 -1.276557,0.64697 l -1.729027,0.12844 -2.674136,0.32779 -0.133308,-1.36684 z m 1.671746,3.03281 -3.6597,1.90954 0.01413,0.0923 3.944896,0.74455 0.970071,0.0807 0.177677,1.1598 -6.093669,-1.2112 q -0.944666,-0.17901 -1.5304,-0.48045 -0.598914,-0.29943 -1.002042,-0.81769 -0.40111,-0.50508 -0.762458,-1.36697 l -0.01817,-0.11861 q 0.267852,-0.36477 0.705972,-0.67469 l 0.151033,0.0173 q 0.314687,0.9095 0.726957,1.39938 0.41227,0.48989 1.232151,0.82291 l 5.710207,-3.14091 0.259728,1.25514 z m 5.422526,11.49532 -1.03213,0.15068 -0.262102,-1.52639 -0.158342,-0.70238 -4.684128,0.98765 -2.612727,0.65736 -0.304955,-1.35272 2.527919,-0.48788 4.771867,-1.14411 -0.158342,-0.70237 -0.424049,-1.51722 0.09654,-0.11744 1.037994,-0.12466 1.301927,5.77505 z m -1.483939,2.60855 q 0.249585,0.88549 -0.02923,1.51819 -0.278811,0.6327 -1.035975,0.84611 -0.230999,0.0651 -1.561696,0.35706 -1.30503,0.28472 -1.523196,0.34621 -0.243832,0.0687 -0.324796,0.17466 -0.06451,0.11516 -0.0066,0.32049 0.03617,0.12833 0.159849,0.37053 l -0.05728,0.14082 -0.754835,0.0742 q -0.335897,-0.30706 -0.510214,-0.72892 -0.07363,-0.40869 0.101474,-0.72124 0.187939,-0.31618 0.584136,-0.48326 l -0.02532,-0.0898 q -0.877472,-0.45917 -1.338681,-1.06338 -0.236751,-0.88911 0.06773,-1.52904 0.308095,-0.6271 1.078092,-0.84413 1.142161,-0.32193 1.775358,0.84332 l 1.020678,1.90106 0.696614,-0.1825 q 0.474831,-0.13383 0.649937,-0.44639 0.178723,-0.29973 0.05212,-0.74889 -0.122983,-0.43633 -0.451299,-0.81479 -0.315483,-0.38207 -0.887285,-0.78887 l 0.03523,-0.12075 0.864139,-0.42365 q 1.088308,0.91229 1.421087,2.09296 z m -4.005771,0.0901 q -0.116442,-0.21653 -0.273712,-0.28303 -0.144437,-0.0701 -0.401103,0.002 -0.384998,0.10852 -0.545289,0.37534 -0.156674,0.27966 -0.05539,0.63899 0.170007,0.60317 1.144547,1.06268 l 0.999013,-0.24002 z m 5.977046,6.32511 q 0.374418,1.08382 -0.156255,1.91604 -0.513716,0.84048 -1.86218,1.30633 -1.524898,0.52679 -2.61353,0.0706 -1.088631,-0.4562 -1.563184,-1.82987 -0.15238,-0.44108 -0.23877,-1.01782 l -2.305792,0.83889 -0.439724,-1.27285 4.794208,-1.55748 3.258768,-1.22453 0.540085,1.19585 -0.836117,0.27475 0.03048,0.0882 q 0.492188,0.28138 0.798775,0.55634 0.306587,0.27496 0.59324,0.65555 z m -5.278147,1.25915 q 0.261222,0.75615 0.942447,0.97222 0.681224,0.21607 1.689421,-0.13222 0.957788,-0.33089 1.34869,-0.8327 0.403505,-0.50616 0.190174,-1.12369 -0.11755,-0.34026 -0.424137,-0.61522 -0.289631,-0.26671 -0.815272,-0.52243 l -1.541855,0.51855 -1.490986,0.5433 q -0.07263,0.6881 0.101518,1.19219 z m 5.237752,7.44354 -1.437399,-3.45998 q -0.932097,0.39775 -1.242773,1.04453 -0.298344,0.64171 0.03637,1.45557 0.349928,0.85085 1.190219,1.45678 l -0.02327,0.15374 -1.087227,0.23088 q -0.76481,-0.73789 -1.114738,-1.58874 -0.522356,-1.27011 -0.04471,-2.31714 0.495052,-1.03978 1.85148,-1.59764 1.36876,-0.56292 2.464428,-0.17736 1.095667,0.38557 1.597738,1.60635 0.425998,1.03582 0.08698,1.82401 -0.333949,0.80052 -1.369767,1.22651 -0.283616,0.11665 -0.703571,0.21728 z m 0.588734,-1.33781 q 0.579565,-0.23836 0.763942,-0.63136 0.189448,-0.38066 -0.01848,-0.88624 -0.233285,-0.56724 -0.755363,-0.78503 -0.509746,-0.22286 -1.226343,-0.0723 l 1.053465,2.42129 z m 4.005663,3.49687 q 0.558355,1.16659 0.124048,2.14312 -0.416523,0.98279 -1.751492,1.62173 -1.431182,0.68499 -2.523243,0.37989 -1.092062,-0.30509 -1.684955,-1.54385 -0.558355,-1.16659 -0.141831,-2.14938 0.434306,-0.97653 1.769275,-1.61547 1.431182,-0.68499 2.523243,-0.37989 1.092062,0.3051 1.684955,1.54385 z m -0.888437,0.33653 q -0.656211,-1.37105 -2.50833,-0.48459 -1.130514,0.54109 -1.510542,1.13687 -0.380029,0.59578 -0.04617,1.29333 0.328106,0.68553 0.946297,0.80354 0.618191,0.11801 1.556277,-0.33098 1.130514,-0.54108 1.510543,-1.13686 0.380028,-0.59578 0.05192,-1.28131 z m 0.653673,10.60506 -0.711418,0.2565 q -0.434688,-0.26234 -0.676258,-0.6163 -0.135327,-0.38227 -0.06486,-0.69555 0.08859,-0.30807 0.415482,-0.62609 l -0.04519,-0.0817 q -0.999185,-0.34619 -1.59129,-0.9481 -0.484149,-0.87498 -0.334038,-1.56757 0.150112,-0.6926 0.914885,-1.10053 l 1.471215,-0.78358 2.307465,-1.33773 0.756986,1.12021 -3.602204,1.917 q -0.438114,0.22718 -0.573368,0.56107 -0.128799,0.34556 0.09714,0.75388 0.342133,0.61832 1.286953,0.94888 l 3.803256,-2.10444 0.731165,1.07354 -4.198436,2.21644 q -0.209996,0.11619 -0.264595,0.23783 -0.04293,0.11519 0.0539,0.29019 0.07746,0.13999 0.246781,0.33583 z m 1.847565,2.79427 q 0.231715,0.37404 0.695539,0.66703 l -0.0091,0.1625 -0.795631,0.33604 q -0.680891,-0.44084 -1.056247,-0.94548 -0.321997,-0.77296 -0.167231,-1.308 0.166101,-0.54206 0.846177,-0.96336 l 0.844178,-0.46022 2.203226,-1.38056 -0.442365,-0.71408 0.03992,-0.0875 0.70385,-0.3576 0.428321,0.69141 0.827426,-0.51258 1.017326,0.78137 -0.02748,0.15819 -1.136169,0.67247 0.898772,1.45083 -0.05126,0.0945 -0.692515,0.35059 -0.905794,-1.46217 -2.880093,1.70577 q -0.426402,0.24846 -0.50514,0.50114 -0.06038,0.25699 0.164312,0.61969 z m 6.524122,4.1463 q 0.234334,0.32417 0.16481,0.63766 -0.05872,0.30568 -0.382888,0.54002 -0.345782,0.24996 -0.691691,0.20387 -0.327292,-0.0431 -0.561626,-0.36727 -0.242146,-0.33498 -0.191239,-0.65146 0.06171,-0.3243 0.396689,-0.56645 0.334976,-0.24214 0.670079,-0.18824 0.35372,0.0569 0.595866,0.39187 z m 1.706378,7.26678 q 0.27608,0.3426 0.77251,0.57614 l 0.011,0.16238 -0.7481,0.43162 q -0.73007,-0.35347 -1.164815,-0.80795 -0.414894,-0.72733 -0.327315,-1.27738 0.09796,-0.55841 0.72087,-1.06039 l 0.78095,-0.56085 2.01609,-1.64181 -0.52708,-0.65405 0.0288,-0.0917 0.65436,-0.4417 0.51035,0.63329 0.75787,-0.61075 1.10595,0.64991 -0.008,0.16037 -1.04453,0.8075 1.07089,1.32887 -0.0392,0.10009 -0.64398,0.43334 -1.07925,-1.33925 -2.64766,2.04803 q -0.39249,0.29918 -0.43946,0.55963 -0.0282,0.26248 0.23951,0.59469 z m 2.62608,0.72621 2.60869,-2.30362 0.96186,0.93112 -2.66966,2.23295 -2.01308,1.78973 -0.87101,-1.00951 z m 5.29402,-3.72241 q 0.21775,0.25238 0.18826,0.52436 -0.0194,0.26327 -0.28186,0.48973 -0.27257,0.23518 -0.56474,0.22311 -0.29217,-0.0121 -0.51864,-0.27454 -0.22646,-0.26247 -0.20568,-0.54455 0.0295,-0.27198 0.29196,-0.49844 0.26247,-0.22646 0.55464,-0.2144 0.30088,0.0222 0.53606,0.29473 z m 0.47435,7.90329 q 0.37792,-0.33773 0.408,-0.71412 0.0489,-0.37584 -0.27108,-0.7155 -0.5303,-0.56287 -1.67945,-0.61598 l -1.19312,1.10575 -1.90549,1.90512 -0.93259,-0.98988 1.92787,-1.70638 2.48721,-2.43486 0.97422,0.85907 -0.65936,0.60288 0.064,0.0679 q 1.04409,0.0971 1.81363,0.54452 0.70402,0.74727 0.72093,1.44576 0.0261,0.70819 -0.61389,1.29279 l -1.28904,1.15948 -1.91464,1.89542 -0.94173,-0.99958 z m 3.17919,1.37786 -1.72786,3.7489 0.0676,0.0643 3.57658,-1.82336 0.81689,-0.52938 0.84984,0.809 -5.5621,2.76818 q -0.85691,0.43606 -1.50469,0.55575 -0.65698,0.12935 -1.29288,-0.0342 -0.62624,-0.15434 -1.43922,-0.6153 l -0.0869,-0.0827 q -0.0111,-0.45241 0.14598,-0.96555 l 0.1301,-0.0786 q 0.80518,0.52716 1.43095,0.66265 0.62578,0.13549 1.47814,-0.10241 l 2.59722,-5.97714 0.97307,0.83425 z m 2.46576,8.06309 q 0.33179,0.28898 0.86143,0.43201 l 0.0393,0.15795 -0.66099,0.55592 q -0.78068,-0.22023 -1.28827,-0.59159 -0.5358,-0.64348 -0.54586,-1.20036 -0.001,-0.56694 0.52413,-1.1702 l 0.67072,-0.68889 1.69756,-1.96937 -0.63342,-0.5517 0.0123,-0.0953 0.56694,-0.54943 0.61332,0.53418 0.63926,-0.73397 1.20264,0.44628 0.0204,0.15925 -0.88705,0.97787 1.28696,1.1209 -0.0211,0.10541 -0.55818,0.53937 -1.29702,-1.12965 -2.24828,2.47987 q -0.33407,0.36326 -0.33472,0.62792 0.0182,0.26336 0.33991,0.54358 z m 6.63183,-1.32913 q 0.72098,0.57148 0.86562,1.24758 0.14465,0.67611 -0.34401,1.2926 -0.14908,0.18808 -1.05656,1.20418 -0.89092,0.99521 -1.03172,1.17284 -0.15736,0.19853 -0.16092,0.33182 0.0152,0.13111 0.18235,0.26363 0.10449,0.0828 0.34659,0.20667 l 0.0361,0.14768 -0.5683,0.50233 q -0.4521,-0.0521 -0.84049,-0.29191 -0.29907,-0.2881 -0.34024,-0.64399 -0.0329,-0.36634 0.19035,-0.73384 l -0.0731,-0.058 q -0.98014,0.14185 -1.70787,-0.0777 -0.71269,-0.58193 -0.84077,-1.27893 -0.11764,-0.68872 0.3793,-1.31566 0.73712,-0.92996 1.93288,-0.35646 l 1.94082,0.94288 0.45769,-0.55596 q 0.30644,-0.38662 0.26527,-0.74251 -0.0307,-0.34761 -0.39643,-0.63749 -0.35527,-0.2816 -0.84305,-0.39601 -0.4795,-0.12486 -1.18122,-0.11962 l -0.0422,-0.1185 0.4522,-0.84955 q 1.41645,0.1019 2.37776,0.86387 z m -3.19381,2.41948 q -0.22121,-0.10728 -0.38763,-0.0691 -0.15813,0.0278 -0.32377,0.23676 -0.24847,0.31347 -0.22209,0.62362 0.0368,0.31843 0.32941,0.55034 0.4911,0.38926 1.55012,0.19083 l 0.66908,-0.77972 z m 8.55125,1.6301 q 0.93783,0.65978 0.9945,1.64518 0.0752,0.98216 -0.74565,2.149 -0.9283,1.31951 -2.07804,1.5866 -1.14974,0.26709 -2.33838,-0.56914 -0.38168,-0.26852 -0.78922,-0.68565 l -1.37891,2.02954 -1.1014,-0.77486 2.97629,-4.06839 1.92602,-2.89991 1.13774,0.65369 -0.51725,0.71206 0.0763,0.0537 q 0.56377,-0.0598 0.97329,-0.0163 0.40951,0.0436 0.86467,0.18445 z m -3.5433,4.10966 q 0.6543,0.46031 1.33315,0.2369 0.67885,-0.22342 1.2926,-1.09582 0.58306,-0.82878 0.6064,-1.46445 0.031,-0.64658 -0.50333,-1.0225 -0.29443,-0.20714 -0.70395,-0.2507 -0.39093,-0.0468 -0.96682,0.0534 l -0.94687,1.32274 -0.89114,1.31304 q 0.34376,0.60049 0.77996,0.90736 z m 8.60271,2.97488 -3.18916,-1.96644 q -0.52359,0.86769 -0.39745,1.57404 0.13318,0.69502 0.88059,1.15955 0.78137,0.48564 1.81734,0.48587 l 0.071,0.13833 -0.74701,0.82302 q -1.05189,-0.15142 -1.83327,-0.63706 -1.1664,-0.72495 -1.39112,-1.85364 -0.20636,-1.13297 0.56785,-2.37864 0.78126,-1.257 1.89555,-1.58485 1.1143,-0.32786 2.2354,0.36893 0.95124,0.59122 1.13707,1.42886 0.19716,0.84468 -0.39406,1.79592 -0.16188,0.26045 -0.44373,0.58764 z m -0.30462,-1.42953 q 0.3308,-0.53224 0.25058,-0.95887 -0.0689,-0.41958 -0.53318,-0.70815 -0.52092,-0.32376 -1.0718,-0.19518 -0.54384,0.11725 -1.03715,0.65838 l 2.27036,1.34828 z m 5.29532,0.49667 q 1.13489,0.62027 1.35322,1.66647 0.23643,1.0409 -0.47336,2.33959 -0.76094,1.39229 -1.82538,1.78299 -1.06444,0.39071 -2.26953,-0.26792 -1.13489,-0.62026 -1.37132,-1.66116 -0.21833,-1.04621 0.49146,-2.3449 0.76094,-1.39229 1.82538,-1.78299 1.06444,-0.39071 2.26953,0.26792 z m -0.52421,0.79233 q -1.33379,-0.72897 -2.31853,1.07282 -0.60108,1.09979 -0.56124,1.80533 0.0399,0.70554 0.71844,1.07642 0.6669,0.36448 1.23749,0.0989 0.57058,-0.26555 1.06935,-1.17814 0.60108,-1.0998 0.56123,-1.80534 -0.0398,-0.70554 -0.70674,-1.07002 z m 6.72852,8.22344 -0.42736,0.62392 q -0.50604,0.0412 -0.90893,-0.10484 -0.33323,-0.23109 -0.45915,-0.52648 -0.10816,-0.30175 -0.0288,-0.75086 l -0.0844,-0.0399 q -1.0131,0.30307 -1.84533,0.16072 -0.90424,-0.42702 -1.18723,-1.07674 -0.28298,-0.64973 0.0992,-1.4277 l 0.73582,-1.49568 1.0905,-2.43408 1.26895,0.46655 -1.80253,3.66082 q -0.22272,0.4404 -0.13733,0.79038 0.0974,0.35567 0.51943,0.55495 0.63899,0.30176 1.59884,0.0178 l 1.85613,-3.93042 1.22072,0.44377 -2.11133,4.25226 q -0.10249,0.21702 -0.0757,0.34764 0.0325,0.11855 0.21334,0.20396 0.14467,0.0683 0.39652,0.12827 z m 3.13309,1.18872 q 0.40642,0.16858 0.95406,0.13592 l 0.0874,0.1373 -0.45011,0.73712 q -0.8102,0.0392 -1.40947,-0.15161 -0.7125,-0.43989 -0.89897,-0.96472 -0.18136,-0.53715 0.12516,-1.2761 l 0.41708,-0.8663 0.98387,-2.40669 -0.77589,-0.32184 -0.0186,-0.0943 0.36299,-0.70109 0.75126,0.31163 0.37293,-0.89905 1.28212,0.041 0.07,0.1445 -0.53039,1.20905 1.57642,0.65391 0.0135,0.10664 -0.35788,0.68877 -1.58873,-0.65901 -1.34385,3.06571 q -0.20134,0.45058 -0.11786,0.70173 0.1009,0.24394 0.495,0.40742 z m 2.42536,0.49869 q 0.31145,0.11879 0.41459,0.37218 0.10789,0.24093 -0.0157,0.56484 -0.12829,0.33636 -0.39118,0.46442 -0.26289,0.12805 -0.5868,0.005 -0.32391,-0.12354 -0.4395,-0.38168 -0.10314,-0.25339 0.0204,-0.5773 0.12354,-0.3239 0.38643,-0.45196 0.27535,-0.12331 0.61172,0.005 z m 5.54482,-3.1431 q 0.40356,0.13851 0.78943,0.36963 0.38586,0.23112 0.6492,0.49067 l -0.58232,0.99836 -0.14342,0.007 q -0.53421,-0.62036 -1.10171,-0.81514 -0.66839,-0.22942 -1.21986,0.14517 -0.55148,0.37459 -0.86313,1.28259 -0.3333,0.97106 -0.12848,1.64752 0.20914,0.66386 0.92798,0.91058 0.63055,0.21643 1.47924,0.0848 l 0.0875,0.11463 -0.48105,0.99082 q -0.86884,0.026 -1.63811,-0.23802 -1.18545,-0.40689 -1.58547,-1.41819 -0.38308,-1.01958 0.0931,-2.40681 0.49345,-1.43767 1.48103,-2.01499 0.98758,-0.57733 2.23608,-0.1488 z m 4.66673,1.44599 q 1.24316,0.35673 1.68526,1.32975 0.45859,0.96388 0.0504,2.38646 -0.43764,1.52511 -1.39071,2.13939 -0.95307,0.61429 -2.27312,0.23549 -1.24316,-0.35673 -1.70175,-1.32061 -0.4421,-0.97302 -0.0339,-2.39561 0.43763,-1.52511 1.3907,-2.13939 0.95307,-0.61428 2.27313,-0.23548 z m -0.33801,0.88787 q -1.46103,-0.41925 -2.02739,1.55443 -0.3457,1.20471 -0.15234,1.88441 0.19335,0.67969 0.93669,0.893 0.73051,0.20962 1.22911,-0.17442 0.4986,-0.38403 0.78546,-1.38369 0.3457,-1.20471 0.15234,-1.8844 -0.19335,-0.6797 -0.92387,-0.88933 z m 10.78764,3.84855 q 0.1156,-0.49348 -0.0758,-0.81896 -0.17567,-0.33583 -0.63268,-0.43027 -0.74427,-0.15381 -1.69727,0.43892 l -0.36072,1.61372 -0.47978,2.65109 -1.34491,-0.27793 0.909,-3.93751 q 0.1156,-0.49348 -0.0758,-0.81896 -0.17567,-0.33583 -0.63268,-0.43027 -0.75733,-0.15651 -1.72879,0.45964 l -0.34226,1.5903 -0.46673,2.65379 -1.33185,-0.27523 0.59913,-2.50389 0.63898,-3.42148 1.29086,0.14423 -0.19385,0.87215 0.0914,0.0189 q 0.9107,-0.51979 1.79764,-0.59518 0.73122,0.15111 1.14732,0.5094 0.43185,0.34793 0.53057,0.85847 l 0.0784,0.0162 q 0.93951,-0.52744 1.92595,-0.62312 1.00542,0.20777 1.42022,0.77002 0.42785,0.56494 0.2394,1.41097 l -0.38996,1.68937 -0.47978,2.65109 -1.33186,-0.27524 z"
   id="text1"
   aria-label="        Tiny Tapeout  • tinytapeout.com" /></svg>
