<?xml version="1.0" encoding="UTF-8" standalone="no"?>
<!-- Generator: Adobe Illustrator 19.0.0, SVG Export Plug-In . SVG Version: 6.00 Build 0)  -->

<svg
   version="1.1"
   id="Layer_1"
   x="0px"
   y="0px"
   viewBox="0 0 377.95312 377.95117"
   xml:space="preserve"
   sodipodi:docname="front_silkscreen_extra.svg"
   width="377.95312"
   height="377.95117"
   inkscape:version="1.3.2 (091e20ef0f, 2023-11-25)"
   xmlns:inkscape="http://www.inkscape.org/namespaces/inkscape"
   xmlns:sodipodi="http://sodipodi.sourceforge.net/DTD/sodipodi-0.dtd"
   xmlns="http://www.w3.org/2000/svg"
   xmlns:svg="http://www.w3.org/2000/svg"><defs
   id="defs1">
	
</defs><sodipodi:namedview
   id="namedview1"
   pagecolor="#ffffff"
   bordercolor="#666666"
   borderopacity="1.0"
   inkscape:showpageshadow="2"
   inkscape:pageopacity="0.0"
   inkscape:pagecheckerboard="0"
   inkscape:deskcolor="#d1d1d1"
   inkscape:zoom="2.6881779"
   inkscape:cx="189.16159"
   inkscape:cy="159.95965"
   inkscape:window-width="1920"
   inkscape:window-height="1216"
   inkscape:window-x="0"
   inkscape:window-y="0"
   inkscape:window-maximized="1"
   inkscape:current-layer="Layer_1" />

<path
   style="font-weight:500;font-size:16px;line-height:1.25;font-family:'Alegreya Sans';-inkscape-font-specification:'Alegreya Sans Medium';letter-spacing:0.02px;word-spacing:0px"
   d="m 78.4584,214.22196 q 0.11217,0.51595 0.519362,1.03325 l -0.07545,0.18014 -1.034617,0.0612 q -0.593454,-0.77153 -0.81575,-1.49277 -0.05439,-1.00335 0.335109,-1.54649 0.405138,-0.54655 1.343225,-0.75049 l 1.1393,-0.1822 3.045382,-0.67845 -0.214142,-0.98499 0.08021,-0.0829 0.939447,-0.12237 0.207344,0.95372 1.141339,-0.24813 0.8375,1.29156 -0.09449,0.1679 -1.554641,0.30524 0.435082,2.00126 -0.09585,0.0863 -0.923812,0.11897 -0.438482,-2.01689 -3.941324,0.775 q -0.581886,0.11013 -0.77222,0.36437 -0.171299,0.26647 -0.06253,0.76679 z m 2.432154,2.16222 4.028994,-1.09932 0.542744,1.51201 -4.057232,0.99093 -3.115489,0.86131 -0.403396,-1.54831 z m 7.671979,-1.20522 q 0.100849,0.38708 -0.07492,0.66436 -0.160288,0.27323 -0.56285,0.37812 -0.418044,0.10891 -0.726283,-0.0588 -0.30824,-0.1677 -0.413123,-0.57026 -0.104883,-0.40256 0.06686,-0.69532 0.175771,-0.27727 0.578332,-0.38216 0.402562,-0.10488 0.710801,0.0628 0.312273,0.18319 0.42119,0.60123 z m -3.645728,8.70091 q 0.58422,-0.16913 0.812207,-0.56071 0.248086,-0.38119 0.07826,-0.91481 -0.281423,-0.8843 -1.497047,-1.53846 l -1.86493,0.57671 -3.050687,1.07161 -0.494917,-1.55515 2.971694,-0.84498 3.955085,-1.34264 0.607876,1.43525 -1.026371,0.30985 0.03396,0.10672 q 1.079096,0.64724 1.679316,1.53082 0.373614,1.17399 0.02922,1.93843 -0.339544,0.77968 -1.335421,1.07982 l -1.996606,0.58504 -3.05554,1.05636 -0.499769,-1.57039 z m 2.719355,3.05883 -3.778263,3.20345 0.04096,0.10424 4.814375,-0.1724 1.156789,-0.16224 0.514861,1.31049 -7.452922,0.19479 q -1.153068,0.0404 -1.918415,-0.1574 -0.780239,-0.19198 -1.389225,-0.69192 -0.603136,-0.48504 -1.254146,-1.39823 l -0.05266,-0.13403 q 0.216989,-0.49782 0.647786,-0.9765 l 0.181363,-0.0197 q 0.608994,0.98126 1.221171,1.44557 0.612177,0.4643 1.65994,0.63713 l 5.852474,-5.18731 0.636127,1.40037 z m -1.370494,9.99034 q 0.219201,0.48035 0.726979,0.89936 l -0.03547,0.19205 -0.99801,0.27956 q -0.743791,-0.62788 -1.114209,-1.28544 -0.266271,-0.9689 -0.001,-1.58239 0.279805,-0.62012 1.153167,-1.01867 l 1.074604,-0.42003 2.831784,-1.30983 -0.418473,-0.91703 0.06077,-0.0981 0.892018,-0.31912 0.405188,0.88792 1.062591,-0.4849 1.092724,1.0842 -0.05667,0.18414 -1.454332,0.62849 0.850231,1.86317 -0.07532,0.10472 -0.877462,0.31249 -0.856874,-1.87773 -3.686777,1.59447 q -0.545215,0.23121 -0.677204,0.52008 -0.110791,0.29677 0.101767,0.76257 z m 7.898509,1.75424 q 0.513909,0.9771 0.344521,1.78931 -0.169389,0.81222 -1.004875,1.25165 -0.254895,0.13406 -1.743983,0.80879 -1.460767,0.65983 -1.701501,0.78644 -0.269055,0.14151 -0.337653,0.28606 -0.04699,0.15126 0.07218,0.37783 0.07448,0.14161 0.280082,0.39504 l -0.03209,0.17958 -0.867484,0.27548 q -0.470885,-0.2766 -0.780758,-0.72828 -0.188405,-0.46133 -0.06086,-0.87189 0.141704,-0.41802 0.565058,-0.71299 l -0.05214,-0.0991 q -1.144528,-0.32001 -1.836646,-0.91413 -0.499748,-0.98454 -0.302038,-1.81165 0.205158,-0.81295 1.054805,-1.25983 1.260311,-0.66286 2.294299,0.54688 l 1.672404,1.97673 0.772131,-0.38803 q 0.523949,-0.27558 0.651493,-0.68614 0.134992,-0.39641 -0.125686,-0.89204 -0.25323,-0.48146 -0.733033,-0.84376 -0.465642,-0.36975 -1.238314,-0.70456 l 0.01122,-0.15053 0.908593,-0.71289 q 1.505067,0.79927 2.190278,2.10206 z m -4.679387,1.1053 q -0.190706,-0.2251 -0.391897,-0.26391 -0.187031,-0.0463 -0.470247,0.1027 -0.424824,0.22344 -0.54639,0.57663 -0.114118,0.36735 0.09442,0.76385 0.350054,0.66556 1.608604,0.96175 l 1.112724,-0.531 z m 8.592778,5.83325 q 0.722886,1.17082 0.319925,2.2846 -0.380941,1.11899 -1.837654,2.01839 -1.647312,1.01708 -3.04178,0.76862 -1.394467,-0.24846 -2.310683,-1.7324 -0.294197,-0.4765 -0.546727,-1.12915 l -2.479787,1.58748 -0.84897,-1.37503 5.204987,-3.08203 3.494454,-2.28918 0.946281,1.25854 -0.90694,0.54116 0.05884,0.0953 q 0.650177,0.20029 1.081342,0.44179 0.431164,0.24149 0.866712,0.61191 z m -5.849956,2.85973 q 0.504339,0.81685 1.358728,0.89106 0.854389,0.0742 1.943521,-0.59825 1.034675,-0.63883 1.360695,-1.32902 0.339633,-0.6986 -0.07224,-1.36569 -0.226953,-0.36759 -0.658118,-0.60908 -0.409145,-0.23629 -1.091758,-0.39775 l -1.669332,1.01187 -1.603272,1.0275 q 0.09555,0.82479 0.43178,1.36936 z m 8.12245,7.26435 -2.630826,-3.64596 q -0.979299,0.72103 -1.164243,1.56197 -0.171936,0.83162 0.442926,1.69015 0.642811,0.89756 1.791004,1.37413 l 0.01511,0.18598 -1.206405,0.5688 q -1.096334,-0.65148 -1.739144,-1.54904 -0.959558,-1.33983 -0.689698,-2.69422 0.292185,-1.3507 1.723075,-2.37547 1.443898,-1.03409 2.829757,-0.88516 1.385861,0.14892 2.308151,1.43672 0.78255,1.09268 0.60341,2.10658 -0.16984,1.02692 -1.26252,1.80947 -0.29918,0.21427 -0.76202,0.44734 z m 0.31962,-1.72459 q 0.61138,-0.43785 0.71862,-0.94762 0.11656,-0.49675 -0.2654,-1.03009 -0.42854,-0.59837 -1.09827,-0.70913 -0.656716,-0.12007 -1.452314,0.25291 l 1.896614,2.53834 z m 5.62119,2.89263 q 0.98579,1.19872 0.76042,2.46126 -0.20285,1.26474 -1.57459,2.3928 -1.47059,1.20936 -2.83061,1.16773 -1.36003,-0.0416 -2.40679,-1.31449 -0.985782,-1.19872 -0.782931,-2.46346 0.225373,-1.26254 1.597101,-2.3906 1.4706,-1.20937 2.83062,-1.16774 1.36002,0.0416 2.40678,1.3145 z m -0.93839,0.64741 q -1.15855,-1.40881 -3.06167,0.15625 -1.16165,0.9553 -1.4332,1.75864 -0.27155,0.80335 0.31789,1.52011 0.57927,0.7044 1.33343,0.66424 0.75416,-0.0402 1.71808,-0.83285 1.16165,-0.9553 1.4332,-1.75865 0.27155,-0.80334 -0.30773,-1.50774 z m 3.86219,12.09695 -0.74952,0.51164 q -0.58381,-0.17427 -0.97076,-0.51297 -0.27201,-0.40349 -0.28422,-0.78863 0.0104,-0.38452 0.29472,-0.85217 l -0.077,-0.0813 q -1.26484,-0.10217 -2.1335,-0.62369 -0.82524,-0.8712 -0.85881,-1.72094 -0.0336,-0.84975 0.73247,-1.55334 l 1.47399,-1.35217 2.27918,-2.2471 1.21586,1.07418 -3.60949,3.30889 q -0.44079,0.39551 -0.49767,0.82404 -0.0459,0.44016 0.33923,0.84671 0.58317,0.61565 1.78015,0.71598 l 3.78679,-3.58704 1.17185,1.02772 -4.21229,3.83582 q -0.20909,0.19806 -0.23599,0.35578 -0.0153,0.14672 0.14975,0.32096 0.13204,0.13939 0.38756,0.31608 z m 3.00385,2.65369 q 0.3843,0.36207 1.01268,0.55841 l 0.0396,0.19124 -0.81865,0.63559 q -0.92578,-0.30066 -1.517,-0.76976 -0.61231,-0.79671 -0.59826,-1.46493 0.025,-0.67987 0.68334,-1.3786 l 0.83655,-0.79459 2.12787,-2.28186 -0.73367,-0.69122 0.0192,-0.11376 0.70556,-0.63223 0.71038,0.66928 0.80095,-0.85012 1.42114,0.59152 0.017,0.19191 -1.1095,1.13096 1.49063,1.4044 -0.0302,0.1254 -0.6946,0.62059 -1.50227,-1.41537 -2.81216,2.86817 q -0.41761,0.41991 -0.43079,0.73723 0.009,0.31664 0.38209,0.66774 z m 2.50759,1.57347 q 0.30032,0.26421 0.30998,0.59236 0.0202,0.31614 -0.25455,0.62847 -0.28535,0.32435 -0.63463,0.35803 -0.34929,0.0337 -0.66163,-0.24109 -0.31233,-0.27478 -0.334,-0.6135 -0.01,-0.32815 0.26512,-0.64048 0.27477,-0.31234 0.62406,-0.34602 0.3613,-0.0231 0.68565,0.26223 z m 7.52621,-1.25446 q 0.39759,0.32259 0.73705,0.74223 0.33945,0.41964 0.52911,0.82075 l -1.06809,0.88475 -0.16458,-0.0511 q -0.34601,-0.91946 -0.90513,-1.37309 -0.65852,-0.53428 -1.4345,-0.33971 -0.77597,0.19457 -1.50179,1.08916 -0.77622,0.95672 -0.82452,1.80349 -0.0382,0.83435 0.66999,1.40896 0.62125,0.50404 1.63189,0.7059 l 0.0513,0.16527 -0.95087,0.91803 q -0.98978,-0.32915 -1.7477,-0.94408 -1.16794,-0.94759 -1.20145,-2.25222 -0.011,-1.30697 1.09788,-2.6737 1.14921,-1.41644 2.50026,-1.65953 1.35104,-0.2431 2.58111,0.7549 z m 4.62201,3.48349 q 1.26222,0.90304 1.37098,2.18092 0.13109,1.27417 -0.9023,2.71858 -1.10786,1.5485 -2.43239,1.85996 -1.32453,0.31146 -2.66483,-0.64744 -1.26223,-0.90305 -1.39331,-2.17723 -0.10876,-1.27787 0.92462,-2.72228 1.10786,-1.5485 2.4324,-1.85996 1.32453,-0.31146 2.66483,0.64745 z m -0.73907,0.86803 q -1.48344,-1.06131 -2.91714,0.94263 -0.87512,1.22319 -0.92971,2.06943 -0.0546,0.84624 0.70015,1.38621 0.74172,0.53066 1.45984,0.29685 0.71813,-0.23381 1.44429,-1.24879 0.87512,-1.22319 0.9297,-2.06943 0.0546,-0.84624 -0.68713,-1.3769 z m 10.65485,8.54115 q 0.32172,-0.51615 0.22976,-0.95984 -0.0701,-0.44938 -0.55293,-0.73299 -0.78638,-0.46189 -2.09795,-0.15601 l -1.0324,1.69453 -1.56789,2.82736 -1.42101,-0.83464 2.55188,-4.12354 q 0.32172,-0.51616 0.22976,-0.95984 -0.0701,-0.44938 -0.55293,-0.73299 -0.80018,-0.47 -2.14175,-0.14463 l -1.0024,1.67504 -1.55409,2.83546 -1.40721,-0.82653 1.64671,-2.61406 2.04598,-3.64134 1.41117,0.66186 -0.55672,0.91624 0.0966,0.0567 q 1.23536,-0.23931 2.27228,0.0172 0.77259,0.45379 1.10719,1.02143 0.35649,0.56195 0.27172,1.18017 l 0.0828,0.0486 q 1.27104,-0.2369 2.42885,0.0349 1.06231,0.62396 1.31675,1.42286 0.26823,0.807 -0.27228,1.69565 l -1.09482,1.7692 -1.56789,2.82736 -1.40721,-0.82654 z"
   id="text1"
   aria-label="                tinytapeout.com" /></svg>
