<?xml version="1.0" encoding="UTF-8" standalone="no"?>
<!-- Generator: Adobe Illustrator 19.0.0, SVG Export Plug-In . SVG Version: 6.00 Build 0)  -->

<svg
   version="1.1"
   id="Layer_1"
   x="0px"
   y="0px"
   viewBox="0 0 377.95312 377.95117"
   xml:space="preserve"
   sodipodi:docname="outline_supports.svg"
   width="377.95312"
   height="377.95117"
   inkscape:version="1.3.2 (091e20ef0f, 2023-11-25)"
   xmlns:inkscape="http://www.inkscape.org/namespaces/inkscape"
   xmlns:sodipodi="http://sodipodi.sourceforge.net/DTD/sodipodi-0.dtd"
   xmlns="http://www.w3.org/2000/svg"
   xmlns:svg="http://www.w3.org/2000/svg"><defs
   id="defs1">
	
</defs><sodipodi:namedview
   id="namedview1"
   pagecolor="#ffffff"
   bordercolor="#666666"
   borderopacity="1.0"
   inkscape:showpageshadow="2"
   inkscape:pageopacity="0.0"
   inkscape:pagecheckerboard="0"
   inkscape:deskcolor="#d1d1d1"
   inkscape:zoom="2.6881779"
   inkscape:cx="189.16159"
   inkscape:cy="188.97559"
   inkscape:window-width="1920"
   inkscape:window-height="1216"
   inkscape:window-x="0"
   inkscape:window-y="0"
   inkscape:window-maximized="1"
   inkscape:current-layer="Layer_1" />
<path
   id="path6"
   style="fill:#000000;stroke:none;stroke-width:4.33699;stroke-linecap:round;stroke-linejoin:round"
   d="M 18.896484,0 C 8.4272904,0 0,8.4272894 0,18.896484 V 359.05469 c 0,10.46921 8.4272904,18.89648 18.896484,18.89648 H 359.05469 c 10.4692,0 18.89844,-8.42727 18.89843,-18.89648 V 18.896484 C 377.95312,8.4272894 369.52389,0 359.05469,0 Z M 188.97656,47.242188 c 13.73616,0 27.00559,2.003538 39.57422,5.669921 l -6.68359,20.56836 c -10.46025,-2.987922 -21.48482,-4.621094 -32.89063,-4.621094 -18.32566,0 -35.7156,4.170191 -51.2832,11.558594 L 124.80078,62.673828 c 19.2733,-9.844627 41.06932,-15.431641 64.17578,-15.43164 z m 46.77149,7.976562 c 33.76869,11.857507 61.68135,36.200746 78.32226,67.43359 l -20.95312,6.8086 c -7.0255,-12.3021 -16.17389,-23.26298 -27.02149,-32.375002 -0.0653,-0.05512 -0.12793,-0.112988 -0.19336,-0.167969 -2.39874,-1.998828 -4.87458,-3.903273 -7.42187,-5.708985 -0.60842,-0.435478 -1.21719,-0.86672 -1.83399,-1.291015 -2.19785,-1.504726 -4.44519,-2.935857 -6.73828,-4.291016 -1.08501,-0.644437 -2.18821,-1.254499 -3.29492,-1.865234 -1.60555,-0.878209 -3.23097,-1.719575 -4.875,-2.523438 -1.91725,-0.945668 -3.86242,-1.831681 -5.83594,-2.675781 -0.87204,-0.367776 -1.7484,-0.725223 -2.6289,-1.072266 -1.40638,-0.562103 -2.77096,-1.205315 -4.20313,-1.714843 z m -117.63282,11.111328 12.76563,17.572266 c -2.31121,1.283842 -4.55284,2.676047 -6.76758,4.103515 l -0.0469,0.02734 c -4.54756,2.933931 -8.85269,6.19145 -12.94727,9.693359 -0.38612,0.319206 -0.77024,0.640827 -1.15234,0.964844 -2.74464,2.407658 -5.41367,4.898088 -7.92383,7.544928 v 0 C 91.323278,117.4628 82.883487,130.66241 77.191402,145.10352 H 77.25 54.265625 c 4.5754,-14.05599 11.279581,-27.0484 19.685547,-38.76172 C 85.657466,90.076199 100.73317,76.425397 118.11523,66.330078 Z m -5.90484,39.906252 h 103.36773 v 38.75976 h -40.96679 v 31.41407 l -0.10742,38.75976 v 25.87696 H 132.6875 V 145.10352 H 84.771024 c 6.271006,-14.76327 15.627786,-28.01518 27.439366,-38.86719 z m 205.23492,23.26758 c 8.425,18.10377 13.23474,38.2209 13.26367,59.4707 0,15.42724 -2.55151,30.25277 -7.12109,44.16992 l -18.55664,-13.48047 c 2.58611,-9.80134 3.9707,-20.08676 3.9707,-30.68945 0,-5.90953 -0.48189,-11.70167 -1.3164,-17.38086 -0.0206,-0.14196 -0.0414,-0.28389 -0.0625,-0.42578 -0.27512,-1.82631 -0.58637,-3.63901 -0.94336,-5.4375 -0.0322,-0.15697 -0.0648,-0.31387 -0.0977,-0.4707 -0.36452,-1.79825 -0.75693,-3.58519 -1.20117,-5.35352 -0.0413,-0.15633 -0.083,-0.31258 -0.125,-0.46875 -1.14921,-4.49675 -2.55329,-8.88969 -4.19336,-13.16992 -0.44889,-1.20275 -0.91705,-2.39822 -1.4043,-3.58594 -0.25207,-0.59975 -0.52766,-1.18642 -0.78906,-1.78125 -0.61658,-1.41988 -1.26058,-2.8277 -1.93164,-4.22266 -0.0709,-0.14598 -0.13162,-0.29771 -0.20312,-0.44335 z M 50.755859,157.45508 h 22.34375 c -2.766526,10.00956 -4.255859,20.55161 -4.255859,31.51953 0,18.98856 4.471084,36.93428 12.345703,52.91016 l -21.160156,5.66992 c -8.152453,-17.87266 -12.785156,-37.67828 -12.785156,-58.58008 0,-10.86144 1.170822,-21.40349 3.511718,-31.51953 z m 131.414061,18.95508 h 99.37891 v 38.75976 h -41.07227 v 74.8748 c -13.02001,6.71159 -27.22523,10.81555 -41.81836,12.08315 v -86.95795 h -16.5957 z m 120.56055,50.92578 18.20898,13.22851 c -12.72489,32.49723 -37.03857,59.21986 -67.9082,74.91602 V 290.5625 c 5.12787,-3.24793 9.94417,-6.93206 14.50781,-10.89844 4.14548,-3.60292 8.01456,-7.49767 11.63282,-11.63086 0.31005,-0.35625 0.618,-0.71433 0.92382,-1.07422 7.2048,-8.42736 13.28256,-17.8273 17.95899,-28.02734 l 0.0781,-0.16016 c 1.70119,-3.7252 3.27736,-7.51909 4.59766,-11.43554 z M 84.871094,248.72656 c 0.736117,1.27738 1.588276,2.47514 2.36914,3.72266 0.526539,0.85043 1.06369,1.69425 1.611328,2.53125 2.773671,4.19661 5.754926,8.23649 9.015626,12.04492 0.482822,0.53629 0.970472,1.06821 1.46289,1.5957 3.204122,3.61002 6.614292,7.0224 10.224612,10.22461 0.40432,0.37585 0.81123,0.74891 1.2207,1.11914 4.03033,3.47738 8.31394,6.64697 12.7832,9.57032 0.39177,0.25229 0.78501,0.50229 1.17969,0.75 7.5143,4.79107 15.5294,8.8637 24.0586,11.89648 l -5.60547,20.91992 C 108.64004,311.28622 80.085399,286.45374 63.347656,254.49023 Z m 155.605466,48.87696 v 23.41406 c -11.38531,4.47232 -23.40908,7.45357 -35.96484,8.83789 h -0.42578 c -1.80889,0.21297 -3.61884,0.42672 -5.42774,0.5332 -3.29849,0.21297 -6.49049,0.31836 -9.78906,0.31836 -13.33038,0 -26.21937,-1.89312 -38.45703,-5.35351 l 5.59375,-20.87696 c 10.45216,2.98303 21.46742,4.61524 32.86328,4.61524 3.29857,0 6.59697,-0.10632 9.78906,-0.42578 v 0 c 14.49448,-1.12391 28.6641,-4.8723 41.81836,-11.0625 z"
   sodipodi:nodetypes="ssssscssssccsccsccccccccccccccccccccccccccccccccccccccccccsccccccccccccccsccsccccccccccccccscccccccccccccccccccccccsccscccc" />
</svg>
