<?xml version="1.0" ?>
<svg xmlns="http://www.w3.org/2000/svg" xmlns:ev="http://www.w3.org/2001/xml-events" xmlns:xlink="http://www.w3.org/1999/xlink" baseProfile="full" height="377.95117" version="1.1" viewBox="0 0 377.95312 377.95117" width="377.95312" x="0px" y="0px">
	<defs/>
	<path d="M 18.897656,377.95117 L 17.19686696,377.87557976600004 L 15.2163926112,377.59589590020005 L 13.2812726368,377.10833889090003 L 11.4028456304,376.41668824979996 L 9.6113478416,375.532282512 L 7.9256769264,374.4589011892 L 6.3609510096,373.2154418399 L 4.9360677472,371.81324299920004 L 3.666145264,370.2674227139 L 2.5663016848000004,368.5968785425 L 1.6516551344000001,366.8205080435 L 0.9335442064,364.9572087754 L 0.415748432,363.0258782967 L 0.1020473424,361.05297318929996 L 0.0,359.0536115 L 0.0,18.8975585 L 0.07559062400000001,17.19677823499999 L 0.3552759328,15.220093615900003 L 0.8428354576,13.281204113799983 L 1.5344896672000001,11.402786798899985 L 2.4188999680000003,9.61129825309997 L 3.4922868288,7.925636034899978 L 4.735752593600001,6.360918191099972 L 6.1379586688000005,4.93604228019999 L 7.6837869296,3.666126348999996 L 9.350560188800001,2.5662884443000076 L 11.130719383999999,1.651646612899991 L 12.9940282656,0.9335393898999996 L 14.9253687088,0.4157462869999978 L 16.8982839952,0.10204681590000386 L 18.897656,0.0 L 359.05546400000003,0.0 L 360.75625304000005,0.07559023399998496 L 362.7329478576,0.35527409979997765 L 364.6718473632,0.8428311090999961 L 366.5502743696,1.5344817501999686 L 368.34177215840003,2.418887488000002 L 370.0274430736,3.4922688107999713 L 371.5921689904,4.735728160100001 L 373.0170522528,6.137927000799982 L 374.286974736,7.6837472861000045 L 375.38303878400006,9.35429145749998 L 376.3014648656,11.130661956499974 L 377.0195757936,12.993961224600008 L 377.537371568,14.925291703299992 L 377.8510726576,16.898196810700014 L 377.95312,18.8975585 L 377.95312,359.0536115 L 377.87752937600004,360.75439176500004 L 377.5978440672,362.7348558958 L 377.1102845424,364.6737453979 L 376.41863033280003,366.5483832011 L 375.534220032,368.3398717469 L 374.4608331712,370.0293134768 L 373.2173674064,371.5940313206 L 371.81516133120004,373.01890723149995 L 370.2693330704,374.285043651 L 368.59878028,375.3848815557 L 366.82240061600004,376.2995233871 L 364.95531220320004,377.0176306101 L 363.02397176,377.535423713 L 361.05105647360006,377.8491231841 L 359.05546400000003,377.95117 L 18.897656,377.95117" style="fill:none;stroke:#000000"/>
	<path d="M 188.8707331264,330.70727375 L 190.6660104464,330.6959352149 L 192.6653824512,330.6581400979 L 194.66475445600003,330.593888399 L 196.6603469296,330.5031801182 L 198.6597189344,330.3897947672 L 200.107279384,330.2839684396 L 202.0990923264,330.0836543195 L 204.08712573760002,329.85688361750005 L 204.510433232,329.85688361750005 L 205.64807212320002,329.72460070799997 L 207.6323260032,329.4789324475 L 209.61280035200002,329.1992485817 L 211.5894951696,328.8968876457 L 213.562410456,328.5642906161 L 215.5315462112,328.20523700459995 L 217.49312290400002,327.81972681120004 L 219.44714053440003,327.4039805242 L 221.39737863360003,326.9617776553 L 223.34383720160002,326.49311820450004 L 225.27895717600003,325.9942226601 L 227.2102976192,325.46887053380004 L 229.13029946880002,324.9170618256 L 231.0465217872,324.3350170238 L 232.951405512,323.72651564010005 L 234.8449506432,323.08777816279996 L 236.7347162432,322.4263636153 L 238.6093637184,321.7347129742 L 240.47645213120003,321.0166057512 L 240.47645213120003,215.1713805927 L 281.5486176816,215.1713805927 L 281.5486176816,176.40870859749998 L 174.6105619088,176.40870859749998 L 174.6105619088,144.99718685879998 L 215.57690058560001,144.99718685879998 L 215.57690058560001,106.23451486360001 L 102.04356286880001,106.23451486360001 L 102.9317527008,105.3085344971 L 104.33773830720001,103.88365858620001 L 105.7626215696,102.48145974549998 L 107.2139615504,101.10571748670002 L 108.6879787184,99.7526522981 L 110.1808935424,98.42604369140001 L 111.70026508480001,97.12211215490001 L 113.23853428320001,95.84463720029999 L 114.79948066880002,94.59361882759997 L 116.37932471040001,93.36527752510001 L 117.978066408,92.16717231619998 L 119.59948529280001,90.99552368919997 L 121.23980183360001,89.85033164409998 L 122.89901603040002,88.73159618090001 L 124.57334835200001,87.63931729960001 L 126.2703578608,86.57727451189999 L 127.98248549440001,85.5454678178 L 129.70973125280003,84.54011770559998 L 131.4558746672,83.565003687 L 133.2171362064,82.61634625029998 L 134.9935158704,81.70170441890002 L 136.78501365920002,80.81351916940002 L 138.595409104,79.95557001350001 L 140.41336361120003,79.12785695119997 L 142.2502157744,78.33037998249998 L 144.0984065312,77.56691861909998 L 145.9579358816,76.83369334929998 L 147.8288038256,76.1307041731 L 149.7147898944,75.45795109050002 L 151.6083350256,74.81921361319998 L 153.5132187504,74.21071222950002 L 155.4294410688,73.6324469394 L 157.35322244960003,73.08819725459998 L 159.288342424,72.57796317510001 L 161.2272419296,72.09796518919998 L 163.1774800288,71.6519828086 L 165.13527719040002,71.24001603330001 L 167.0968538832,70.85828535160002 L 169.06976916960002,70.51434978689998 L 171.04268445600002,70.19687080409997 L 173.0231588048,69.91718693829998 L 175.00741268480002,69.66773916609998 L 176.995446096,69.45230699920002 L 178.9872590384,69.27089043760002 L 180.982851512,69.12348948130001 L 182.97844398560002,69.00632461859999 L 184.97781599040002,68.92695487289998 L 186.9771879952,68.8740417091 L 188.97656,68.85892366229997 L 189.562387336,68.85892366229997 L 191.56553887200002,68.8853802442 L 193.56113134560002,68.94585243140001 L 195.5605033504,69.03656071220001 L 197.556095824,69.16128459829997 L 199.5516882976,69.32002408969998 L 201.5397217088,69.51277918639998 L 203.52775512000002,69.73577037669997 L 205.512009,69.99655668399998 L 207.49248334880002,70.28757908489997 L 209.4653986352,70.6088375794 L 211.43075485920002,70.9678911909 L 213.392331552,71.35718089599999 L 215.35012871360001,71.78048620640001 L 217.2965872816,72.23402761039998 L 219.23548678720002,72.72536413140001 L 221.1668272304,73.24693674599999 L 223.08682908,73.79874545419999 L 224.9992718672,74.38456976769999 L 226.90415559200002,75.00063017479998 L 228.79392119200003,75.65070618720002 L 230.67234819840002,76.3347978049 L 232.5432161424,77.04534600450002 L 234.3989659616,77.78990980939997 L 236.2433771872,78.56470970789996 L 238.072670288,79.3697457 L 239.8906247952,80.20879729739998 L 241.6934611776,81.07430547669998 L 243.48117943520003,81.97004974960001 L 245.253779568,82.8998096278 L 247.0074820448,83.85602608789999 L 248.74984592799998,84.83869912990001 L 250.4733121552,85.85160826550002 L 252.18166025760002,86.8947534947 L 253.8673311728,87.96813481749997 L 255.54166349439998,89.0641932105 L 257.19331862880006,90.1904876971 L 258.8260761072,91.3470182773 L 260.4399359296,92.52622592769998 L 262.034898096,93.73189015999999 L 263.6109626064,94.96779048589998 L 265.1643499296,96.22636788199998 L 266.69883959680004,97.51140185999999 L 268.20687254560005,98.8191129082 L 269.6997873696,100.15328053829998 L 271.1662454752,101.51390475029999 L 272.6100263936,102.89720603249998 L 274.03113012480003,104.30318438489998 L 275.4295566688,105.73183980749998 L 276.80530602560003,107.186951812 L 278.154598664,108.660961375 L 279.4812141152,110.1576480082 L 280.78137284800005,111.6770117116 L 282.0550748624,113.21905248520001 L 283.3060996896,114.7799908173 L 284.5306677984,116.35982670789997 L 285.72877918880005,117.9623396687 L 286.90043386080004,119.583750188 L 288.0418522832,121.2240582658 L 289.16059351840005,122.88326390210003 L 290.249098504,124.56136709689997 L 291.30736724,126.25836785019997 L 292.34295878880005,127.97048665029997 L 293.3445345568,129.70150300889998 L 294.3196536064,131.44763741429998 L 295.2645364064,133.20888986650002 L 296.182962488,134.9852603655 L 297.0673727888,136.780528423 L 297.9253263712,138.5871350156 L 298.7492641728,140.408859655 L 299.546745256,142.2419228295 L 300.31021055840006,144.0901040508 L 301.0434396112,145.9534033189 L 301.74643241440003,147.82426161040001 L 302.419188968,149.71023794869998 L 303.0579297408,151.60377331040002 L 303.66265473280004,153.5086472072 L 304.2371434752,155.4248596391 L 304.781395968,157.3486310944 L 305.29163268,159.2837410848 L 305.7716331424,161.2264100986 L 306.2138382928,163.1766381358 L 306.6258071936,165.13064568469997 L 307.0075398448,167.0959917687 L 307.3552567152,169.0651173644 L 307.6689578048,171.0418019835 L 307.94864311360004,173.02226611429998 L 308.19431264160005,175.0065097568 L 308.40974592000003,176.994532911 L 308.5911634176,178.9863355769 L 308.7385651344,180.9819177545 L 308.85573060160004,182.9774999321 L 308.9351007568,184.9768616214 L 308.9842346624,186.9762233107 L 309.00313231840005,188.975585 L 308.9993527872,190.0111712058 L 308.96533700640003,192.0105328951 L 308.8973054448,194.0098945844 L 308.7990376336,196.0092562737 L 308.66675404160003,198.00483845129997 L 308.5004546688,199.9966411172 L 308.30391904640004,201.9884437831 L 308.0733676432,203.9726874256 L 307.80880045920003,205.9569310681 L 307.51021749439997,207.9336156872 L 307.18139828000005,209.9065207946 L 306.8185632848,211.8718668786 L 306.4217125088,213.8334334509 L 305.99084595200003,215.7874409998 L 305.52974314560004,217.73388952530001 L 305.0384040896,219.6727790274 L 304.5092697216,221.6003299944 L 303.949899104,223.520321938 L 303.3602922368,225.4327548582 L 302.7366695888,227.3338492433 L 302.0828106912,229.2236050933 L 301.39493601280003,231.1020224082 L 300.68060461600004,232.969101188 L 299.92847790720003,234.82106192100002 L 299.14989448,236.66546363060002 L 298.34107480320006,238.4909677817 L 297.49823934560004,240.3051333977 L 296.6289471696,242.10796047859998 L 295.72941874400004,243.891890001 L 294.7958745376,245.66448098829997 L 293.8358736128,247.41817441709998 L 292.84941596960005,249.1567497991 L 291.82894254560006,250.8764276226 L 290.7857919344,252.58098739930003 L 289.7086255424,254.27042912919998 L 288.60878196320004,255.9371937889 L 287.4787021344,257.5888404018 L 286.3221655872,259.2178099445 L 285.13539279040003,260.8316614404 L 283.92594280640003,262.4228358661 L 282.690036104,263.9951127333 L 281.4276726832,265.5447125303 L 280.13885254400003,267.0754147688 L 278.8273552176,268.5834399371 L 277.4894011728,270.07256754689996 L 276.12499040960006,271.53523857479996 L 274.7416819904,272.9790120442 L 273.3319168528,274.3963289317 L 271.89569499680005,275.790968749 L 270.44057548480004,277.1629314961 L 268.9627787856,278.5084376613 L 267.46230489920003,279.8312667563 L 265.9391538256,281.12763926940005 L 264.397105096,282.40133471229996 L 262.8323791792,283.6447940616 L 261.2487556064,284.8655763407 L 259.6424548464,286.0599020379 L 258.0172564304,287.22777115319997 L 256.3731603584,288.3654041749 L 254.71016663039998,289.4765806147 L 253.03205477760002,290.5613004726 L 253.03205477760002,315.4796211107 L 253.22481086879998,315.3813538065 L 255.00119053280002,314.4591529517 L 256.76245207200003,313.510495515 L 258.5123750176,312.5391610081 L 260.2434003072,311.545149431 L 261.96686653439997,310.524681272 L 263.67143510560004,309.4777565311 L 265.360885552,308.40815471999997 L 267.0352178736,307.31587583870004 L 268.6944320704,306.2009198872 L 270.33852814240004,305.0632868655 L 271.9675060896,303.8991972619 L 273.5775863808,302.7162100998 L 275.1725485472,301.5067663558 L 276.7486130576,300.2784250533 L 278.3095594432,299.0274066806 L 279.8516081728,297.75371123770003 L 281.3747592464,296.4573387246 L 282.8827921952,295.142068653 L 284.36814795680004,293.80412151120004 L 285.8383855936,292.4472768109 L 287.2859460432,291.0677550404 L 288.7146088368,289.6693357114 L 290.1243739744,288.25201882389996 L 291.515241456,286.8120248662 L 292.8872112816,285.35691286170004 L 294.23650392,283.879123787 L 295.56311937120006,282.3862166655 L 296.8708371664,280.87063247379996 L 298.1558777744,279.33993023529996 L 299.42202072640004,277.7903304383 L 300.6654864912,276.2218330828 L 301.8862750688,274.63821768049996 L 303.0843864592,273.0357047197 L 304.2598206624,271.4180737121 L 305.4125776784,269.7853246577 L 306.54265750720003,268.13367804480004 L 307.65006014880004,266.47069289679996 L 308.731006072,264.7888101903 L 309.789274808,263.091809437 L 310.82486635680004,261.37969063689997 L 311.83778071840004,259.65245379000004 L 312.8242383616,257.91387840799996 L 313.7842392864,256.1601849792 L 314.721563024,254.3951530153 L 315.6362095744,252.61500300459997 L 316.5206198752,250.82351445880002 L 317.3823529888,249.01690786619997 L 318.217629384,247.1989627385 L 319.030228592,245.36967907569996 L 319.81259155040004,243.5328363895 L 320.56849779040004,241.6808756565 L 321.3017268432,239.8175763884 L 322.0084991776,237.9467180969 L 322.6850352624,236.0645212703 L 323.33511462880006,234.1747654203 L 323.96251680800003,232.27367103519998 L 324.55968273760004,230.3650176267 L 325.1303919488,228.4488051948 L 325.67086491040004,226.5250337395 L 326.1886606848,224.5937032608 L 326.67622020960005,222.65103424699998 L 327.13732301600004,220.7045857215 L 327.5681895728,218.7543576843 L 327.9725994112,216.79657062369998 L 328.35055253120004,214.8312245397 L 328.69826940160004,212.862098944 L 329.0195295536,210.88919383660001 L 329.31433298720003,208.9087297058 L 329.5789001712,206.928265575 L 329.8170106368,204.9402424208 L 330.0248848528,202.9522192666 L 330.20630235040005,200.9604166007 L 330.3612631296,198.9648344231 L 330.4859876592,196.9692522455 L 330.5842554704,194.97367006789997 L 330.652287032,192.9743083786 L 330.6938618752,190.9749466893 L 330.70898,188.975585 L 330.7052004688,188.4048787333 L 330.68252328159997,186.405517044 L 330.62960984480003,184.4061553547 L 330.5502396896,182.40679366540002 L 330.4406332848,180.41121148780002 L 330.3045701616,178.4156293102 L 330.14205032000007,176.42382664430002 L 329.94929422880006,174.4320239784 L 329.7300814192,172.4440008242 L 329.4844118912,170.45975718169998 L 329.20850611360004,168.4792930509 L 328.90236408640004,166.5026084318 L 328.5697653408,164.52970332439997 L 328.2107098768,162.5605777287 L 327.8251976944,160.5990111564 L 327.4094492624,158.6450036075 L 326.967244112,156.69477557029998 L 326.494802712,154.7483270448 L 325.9959045936,152.8132170544 L 325.47054975680004,150.8818865757 L 324.91873820160004,148.96189463209998 L 324.3366903968,147.0456822002 L 323.7281858736,145.1408083034 L 323.09700416320004,143.24349343 L 322.43558620320005,141.35751709169998 L 321.7477115248,139.47909977679998 L 321.033380128,137.612020997 L 320.28881248159996,135.75250124059997 L 319.52156764800003,133.90809953099998 L 318.7316456272,132.07125684480002 L 317.9114873568,130.24575269369998 L 317.064872368,128.4353665894 L 316.195580192,126.63253950849999 L 315.2998312976,124.84483047439998 L 314.3776256848,123.06845997539999 L 313.4327428848,121.30720752320002 L 312.4614033664,119.55729360609999 L 311.4673866608,117.82249773579997 L 310.4469132368,116.10281991229998 L 309.4037626256,114.3982601356 L 308.3379348272,112.70503889399997 L 307.24565031040004,111.03071521089998 L 306.1306886064,109.3677300629 L 304.9930497152,107.72364247339998 L 303.8327336368,106.0946729307 L 302.64974037120004,104.48460094649998 L 301.44406991840003,102.8896470091 L 300.2157222784,101.30981111849998 L 298.9646974512,99.74887278639999 L 297.6909954368,98.20305250110002 L 296.3983957664,96.679909286 L 295.0831189088,95.17188411769999 L 293.7489443952,93.68275650789997 L 292.3920926944,92.21252645659999 L 291.0163433376,90.76119396379998 L 289.62169632480004,89.32875902950002 L 288.20437212480005,87.9190011654 L 286.7681502688,86.52814085980002 L 285.3130307568,85.15617811269998 L 283.8390135888,83.8031129241 L 282.34609876480005,82.4727248057 L 280.8342862848,81.16501375749998 L 279.3035761488,79.8762002678 L 277.75396835680004,78.61006384829997 L 276.18924244000004,77.36282498729997 L 274.6093983984,76.14204270820001 L 273.00687716960005,74.94015798760002 L 271.3930173472,73.76095033720001 L 269.7602598688,72.60819926869999 L 268.1086047344,71.47434575870001 L 266.4456110064,70.36694883059998 L 264.7674991536,69.28222897270001 L 263.0704896448,68.22018618499999 L 261.3621415424,67.18082046749997 L 259.6386753152,66.16791133190002 L 257.9000909632,65.17767926650002 L 256.14638848640004,64.21390378299998 L 254.38134741600004,63.27658488140002 L 252.60118822080003,62.36194305 L 250.809690432,61.4737578005 L 249.00685404959998,60.6082496212 L 247.19267907360003,59.76919802379997 L 245.3633859728,58.956603008300014 L 243.52275427840001,58.17046457470002 L 241.6745635216,57.41078272299999 L 239.8150341712,56.67755745319998 L 237.94416622720001,55.97078876529999 L 236.0619596896,55.29047665930002 L 234.1721940896,54.63662113520001 L 232.271089896,54.01300170469999 L 230.36620617120002,53.41205934440002 L 228.4462043216,52.84135307769998 L 226.52242294080003,52.29710339290001 L 224.5910824976,51.77931029000001 L 222.652182992,51.287973768999976 L 220.705724424,50.82687334159998 L 218.7554863248,50.39222949609999 L 216.79768916320003,49.9878217442 L 214.8323329392,49.609870574200016 L 212.863197184,49.258375986100006 L 210.8902818976,48.93711749159998 L 208.90980754880002,48.64231557900002 L 206.9293332,48.37397024829997 L 204.94129978880002,48.135861011200014 L 202.95326637760002,47.92798786769999 L 200.9614534352,47.74657130609998 L 198.9696404928,47.5916113264 L 196.9740480192,47.46688744029999 L 194.97467601440002,47.368620136100006 L 192.9753040096,47.296809413799984 L 190.97593200480003,47.2552347851 L 188.97656,47.24389625 L 188.674197504,47.24389625 L 186.6748254992,47.25901429680002 L 184.67545349440002,47.308147948899986 L 182.6760814896,47.37995867120001 L 180.680489016,47.48200548710001 L 178.68111701120003,47.61050888489998 L 176.68930406880003,47.769248376299984 L 174.6974911264,47.95444444960001 L 172.7094577152,48.16987661650002 L 170.7252038352,48.41176536529999 L 168.7409499552,48.680110695999986 L 166.7642551376,48.97869212030001 L 164.7913398512,49.307509638199974 L 162.822204096,49.659004226299984 L 160.8606274032,50.04073490799998 L 158.90283024160001,50.45270168330001 L 156.95259214240002,50.891125040500015 L 155.0061335744,51.35600497959998 L 153.06723406880002,51.85112101229998 L 151.1358936256,52.36891411519998 L 149.2121122448,52.920722823399984 L 147.2996694576,53.49520860179999 L 145.39100620160002,54.09993047379997 L 143.4936815392,54.72732941600002 L 141.60391593920002,55.38496445179999 L 139.7254889328,56.06905606949998 L 137.8546209888,56.779604269099984 L 135.9950916384,57.51660905060001 L 134.1469008816,58.28007041400001 L 132.3100487184,59.06998835930002 L 130.4845351488,59.886362886499995 L 128.67036017280003,60.72919399559999 L 126.8675237904,61.594702174899986 L 125.07980553280001,62.49044644779997 L 123.3034258688,63.408867790900004 L 121.53838479840002,64.34996620419999 L 119.7884618528,65.31752119939999 L 118.053657032,66.3115327765 L 116.3301908048,67.32822142379997 L 114.62184270240002,68.37136665300001 L 112.9286127248,69.43340944069998 L 111.2542804032,70.525688322 L 109.59128667520001,71.63686476179997 L 107.94341107200002,72.77449778349998 L 106.3144331248,73.93102836369998 L 104.7005733024,75.11401552579999 L 103.10561113600001,76.31590024639998 L 101.52576709440001,77.54424154889999 L 99.96104117760001,78.79148040989998 L 98.418992448,80.06139634109998 L 96.8920618432,81.35398934249997 L 95.38024936320001,82.66925941410001 L 93.8911140704,84.0034270442 L 92.4208764336,85.35649223280001 L 90.9695364528,86.73223449159998 L 89.537094128,88.12687430889997 L 88.12354945919999,89.54419119639998 L 86.7289024464,90.9766261307 L 85.3569326208,92.4317381352 L 84.0038604512,93.90574769820002 L 82.6734654688,95.3986548197 L 81.3619681424,96.90667998800001 L 80.0731480032,98.4373822265 L 78.80322552000001,99.98320251179997 L 77.555980224,101.54792035559998 L 76.33141211520001,103.12775624620001 L 75.1295211936,104.72648969530002 L 73.9503074592,106.34034119119998 L 72.9978655968,107.68584735640002 L 71.8640062368,109.32993494589998 L 70.7490445328,110.99292009390001 L 69.656760016,112.66724377700001 L 68.5909322176,114.36046501859998 L 67.54778160640001,116.06502479530002 L 66.5273081824,117.78470261880001 L 65.5295119456,119.51949848910002 L 64.5581724272,121.26941240619999 L 63.6132896272,123.03066485839997 L 62.6910840144,124.80703535740003 L 61.795335120000004,126.59474439150002 L 60.926042944,128.3937919607 L 60.0794279552,130.20795757669998 L 59.2592696848,132.02968221609999 L 58.46556813280001,133.8665249023 L 57.6983232992,135.7147061236 L 56.957535184,137.5704463683 L 56.2432037872,139.44130465979998 L 55.559108640000005,141.3197219747 L 54.897690680000004,143.205698313 L 54.266508969600004,145.10301318639998 L 132.6880018384,145.10301318639998 L 132.6880018384,241.0459176909 L 174.5047350352,241.0459176909 L 174.5047350352,215.1713805927 L 198.6597189344,215.1713805927 L 198.6597189344,308.6651615156 L 196.86444161440002,308.823901007 L 194.8650696096,308.9486248931 L 192.869477136,309.0317741505 L 190.8701051312,309.0771282909 L 188.8707331264,309.09224633770003 L 188.28112625920002,309.09224633770003 L 186.2817542544,309.0657897558 L 184.2823822496,309.0053175686 L 182.2830102448,308.9146092878 L 180.2874177712,308.78988540169996 L 178.2956048288,308.63114591029995 L 176.3037918864,308.4383908136 L 174.3157584752,308.2153996233 L 172.33150459520002,307.954613316 L 170.3548097776,307.6635909151 L 168.3818944912,307.3423324206 L 166.412758736,306.9832788091 L 164.45118204320002,306.593989104 L 162.4971644128,306.1706837936 L 160.5507058448,305.7133628779 L 158.608026808,305.2258058686 L 156.67668636480002,304.70423325400003 L 154.7566845152,304.1524245458 L 152.844241728,303.5666002323 L 150.9431375344,302.9467603135 L 149.0495924032,302.2966843011 L 147.1711653968,301.6163721951 L 145.3002974528,300.9058239955 L 143.44454763360002,300.16126019060005 L 141.60013640800003,299.38646029209997 L 139.7708433072,298.5776447883 L 137.9566683312,297.7423727026 L 136.15383194880002,296.8768645233 L 134.3661136912,295.97734073870004 L 132.59351355840002,295.0513603722 L 130.83603155039998,294.0951439121 L 129.0936676672,293.11247087009997 L 127.37020144000002,292.0957822228 L 125.66563286880002,291.0526369936 L 123.9761824224,289.9830351825 L 122.305629632,288.8831972778 L 120.65019496640001,287.7569027912 L 119.01743748800001,286.6041517227 L 117.40357766560001,285.42494407230004 L 115.80861549920002,284.2155003283 L 114.23633052000001,282.9833795141 L 112.67916366560002,281.72480211799996 L 111.1484535296,280.43976814 L 109.6366410496,279.12827758009996 L 108.1475057568,277.79410995 L 106.6810476512,276.4372652497 L 105.2334872016,275.0539639675 L 103.81238347040001,273.64798561509997 L 102.4139569264,272.2155506808 L 101.04198710080001,270.76421818800003 L 99.6889149312,269.28642911329996 L 98.3660790112,267.78974248009996 L 97.06592027840001,266.2703787767 L 95.7884387328,264.7321175148 L 94.5374139056,263.17117918270003 L 93.316625328,261.5875637804 L 92.1185139376,259.98505081959996 L 90.9468592656,258.3636403003 L 89.80166131200001,256.7233322225 L 88.686699608,255.06412658619996 L 87.5981946224,253.38602339140002 L 86.5361463552,251.69280214979997 L 85.5043343376,249.976903838 L 84.4989790384,248.24966699109999 L 83.5238599888,246.50353258570001 L 82.5789771888,244.74228013349997 L 81.6643306384,242.96213012279998 L 80.77614080640001,241.170641577 L 79.9219667552,239.3640349844 L 79.0942494224,237.542310345 L 78.3005478704,235.7054676588 L 77.53330303679999,233.8572864375 L 76.80007398400001,231.99776668110002 L 76.0970811808,230.1231288779 L 75.4281041584,228.24093205129998 L 74.7893633856,226.3436171779 L 74.1808588624,224.43874328110002 L 73.60637012000001,222.5225308492 L 73.0658971584,220.5987593939 L 72.5556604464,218.66742891520002 L 72.075659984,216.7247599014 L 71.6296753024,214.77453186420001 L 71.2177064016,212.8167448036 L 70.83975328160001,210.85139871959998 L 70.4920364112,208.88227312389998 L 70.1783353216,206.9093680165 L 69.8986500128,204.92890388569998 L 69.6492009536,202.9446602432 L 69.4375472064,200.956637089 L 69.2561297088,198.9648344231 L 69.1049484608,196.9692522455 L 68.9915625248,194.97367006789997 L 68.9084128384,192.9743083786 L 68.85927893280001,190.9749466893 L 68.844160808,188.975585 L 68.85927893280001,187.0707111032 L 68.9084128384,185.0713494139 L 68.9877829936,183.0757672363 L 69.1049484608,181.07640554699998 L 69.25235017760001,179.08460288109998 L 69.4337676752,177.09280021520001 L 69.6492009536,175.104777061 L 69.8986500128,173.1205334185 L 70.1821148528,171.1400692877 L 70.4995954736,169.16338466859997 L 70.847312344,167.1942590729 L 71.23282452640001,165.2326925006 L 71.64857295840001,163.27490544 L 72.0983371712,161.3284569145 L 72.58211716480001,159.3857879007 L 73.09991293920001,157.454457422 L 50.7553244848,157.454457422 L 50.366032771200004,159.19681231570002 L 49.9578434016,161.15081986459998 L 49.576110750400005,163.1161659486 L 49.2246143488,165.08529154430002 L 48.9033541968,167.0581966517 L 48.6123302944,169.03866078250002 L 48.3477631104,171.0191249133 L 48.113432176,173.0071480675 L 47.9093374912,174.99517122170002 L 47.7316995248,176.9869738876 L 47.5805182768,178.98255606520001 L 47.4595732784,180.97813824280001 L 47.3650849984,182.9774999321 L 47.297053436800006,184.9768616214 L 47.2592581248,186.9762233107 L 47.24414,188.975585 L 47.24414,189.504716638 L 47.266817187200004,191.5040783273 L 47.3159510928,193.5034400166 L 47.3915417168,195.5028017059 L 47.4973685904,197.4983838835 L 47.6296521824,199.4939660611 L 47.792172024,201.4895482387 L 47.981148584,203.4775713929 L 48.1965818624,205.4655945471 L 48.4422513904,207.45361770129998 L 48.7143776368,209.4340818321 L 49.016740132799995,211.4107664512 L 49.3455593472,213.38367155859999 L 49.70083528,215.3527971543 L 50.086347462400006,217.3143637266 L 50.498316363200004,219.2721507872 L 50.940521513600004,221.22237882439998 L 51.4091833824,223.1650478382 L 51.904301969600006,225.10393734029998 L 52.429656806400004,227.035267819 L 52.9776888304,228.95525976259998 L 53.555957104,230.8714721945 L 54.160682096,232.77634609129998 L 54.795643337600005,234.67366096470002 L 55.4532817664,236.56341681470002 L 56.141156444800004,238.4418341296 L 56.8517083104,240.3089129094 L 57.5924964256,242.1684326658 L 58.355961728,244.01661388710002 L 59.149663280000006,245.85345657330004 L 59.9660420192,247.67896072439999 L 60.8088774768,249.4931263404 L 61.6781696528,251.2921739096 L 62.5739185472,253.08366245539997 L 63.4923446288,254.8562534427 L 64.4372274288,256.6212854066 L 65.404787416,258.3711993237 L 66.39880412160001,260.105995194 L 67.41927754560001,261.82567301750004 L 68.4624281568,263.53401230590003 L 69.52825595520001,265.22723354749996 L 70.6167609408,266.90155723059996 L 71.7317226448,268.5645423786 L 72.869361536,270.20862996809996 L 74.0258980832,271.83759951080003 L 75.20889134880001,273.4514510067 L 76.4145618016,275.0464049441 L 77.6429094416,276.6262408347 L 78.8901547376,278.1871791668 L 80.163856752,279.73299945210005 L 81.4564564224,281.2599221789 L 82.76795374880001,282.7679473472 L 84.1021282624,284.25707495700004 L 85.45897996320001,285.7273050083 L 86.83472932000001,287.1786375011 L 88.233155864,288.6110724354 L 89.64670053280001,290.02460981120004 L 91.0829223888,291.4154701168 L 92.53804190080001,292.7874328639 L 94.0120590688,294.1404980525 L 95.50497389280001,295.4708861709 L 97.0167863728,296.7785972191 L 98.54749650880001,298.0674107088 L 100.0933247696,299.33732664 L 101.65805068640002,300.5807859893 L 103.2416742592,301.80534778009996 L 104.8404159568,303.003452989 L 106.4542757792,304.1826606394 L 108.0870332576,305.33919121959997 L 109.7349088608,306.4692652179 L 111.40168212,307.5804416577 L 113.0797939728,308.6651615156 L 114.77680348160001,309.72720430329997 L 116.48515158400001,310.76657002080003 L 118.2086178112,311.77947915640004 L 119.9472021632,312.76971122180004 L 121.70090464000002,313.7334867053 L 123.4659457104,314.67080560690005 L 125.24232537440001,315.5854474383 L 127.03382316320003,316.4774121995 L 128.8404390768,317.33914086709996 L 130.6546140528,318.1781924645 L 132.4839071536,318.99078748000005 L 134.3207593168,319.7769259136 L 136.17272960480003,320.5366077653 L 138.0322589552,321.2698330351 L 139.9031268992,321.976601723 L 141.78533343680002,322.656913829 L 143.67509903680002,323.3107693531 L 145.5724236992,323.9381682953 L 147.4810869552,324.5353311439 L 149.3973092736,325.1098169223 L 151.3210906544,325.6540666071 L 153.2524310976,326.17185971 L 155.19511013439998,326.6594167193 L 157.1377891712,327.1205171467 L 159.09180680160003,327.5551609922 L 161.0496039632,327.9633482558 L 163.01496018720002,328.3412994258 L 164.98409594240002,328.69279401389997 L 166.9570112288,329.01405250839997 L 168.9337060464,329.308854421 L 170.91795992640002,329.57342024 L 172.9022138064,329.8115294771 L 174.8902472176,330.0231821323 L 176.88206016,330.20459869390004 L 178.8776526336,330.3595586736 L 180.8732451072,330.48428255970003 L 182.872617112,330.5825498639 L 184.86820958560003,330.6505810745 L 186.8675815904,330.6921557032 L 188.8707331264,330.70727375" style="fill:none;stroke:#000000"/>
</svg>
