<?xml version="1.0" ?>
<svg xmlns="http://www.w3.org/2000/svg" xmlns:ev="http://www.w3.org/2001/xml-events" xmlns:xlink="http://www.w3.org/1999/xlink" baseProfile="full" height="377.95117" version="1.1" viewBox="0 0 377.95312 377.95117" width="377.95312" x="0px" y="0px">
	<defs/>
	<path d="M 18.897656,377.95117 L 17.19686696,377.87557976600004 L 15.220172142400001,377.59589590020005 L 13.2812726368,377.10833889090003 L 11.4028456304,376.41668824979996 L 9.6113478416,375.532282512 L 7.9256769264,374.4589011892 L 6.3609510096,373.2154418399 L 4.9360677472,371.81324299920004 L 3.666145264,370.2674227139 L 2.5663016848000004,368.5968785425 L 1.6516551344000001,366.8205080435 L 0.9335442064,364.9572087754 L 0.415748432,363.0258782967 L 0.1020473424,361.05297318929996 L 0.0,359.0536115 L 0.0,18.8975585 L 0.07559062400000001,17.19677823499999 L 0.3552759328,15.220093615900003 L 0.8428354576,13.281204113799983 L 1.5344896672000001,11.402786798899985 L 2.4188999680000003,9.61129825309997 L 3.4922868288,7.925636034899978 L 4.735752593600001,6.360918191099972 L 6.1379586688000005,4.93604228019999 L 7.6837869296,3.666126348999996 L 9.350560188800001,2.5662884443000076 L 11.130719383999999,1.651646612899991 L 12.9940282656,0.9335393898999996 L 14.9253687088,0.4157462869999978 L 16.8982839952,0.10204681590000386 L 18.897656,0.0 L 359.05546400000003,0.0 L 360.75625304000005,0.07559023399998496 L 362.7329478576,0.35527409979997765 L 364.6718473632,0.8428311090999961 L 366.5502743696,1.5344817501999686 L 368.34177215840003,2.418887488000002 L 370.0274430736,3.4922688107999713 L 371.5921689904,4.735728160100001 L 373.0170522528,6.137927000799982 L 374.286974736,7.6837472861000045 L 375.38303878400006,9.35429145749998 L 376.3014648656,11.130661956499974 L 377.0195757936,12.993961224600008 L 377.537371568,14.925291703299992 L 377.8510726576,16.898196810700014 L 377.95312,18.8975585 L 377.95312,359.0536115 L 377.87752937600004,360.75439176500004 L 377.5978440672,362.7348558958 L 377.1102845424,364.6737453979 L 376.41863033280003,366.5483832011 L 375.534220032,368.3398717469 L 374.4608331712,370.0293134768 L 373.2173674064,371.5940313206 L 371.81516133120004,373.01890723149995 L 370.2693330704,374.285043651 L 368.59878028,375.3848815557 L 366.82240061600004,376.2995233871 L 364.95531220320004,377.0176306101 L 363.02397176,377.535423713 L 361.05105647360006,377.8491231841 L 359.05546400000003,377.95117 L 18.897656,377.95117" style="fill:none;stroke:#000000"/>
	<path d="M 198.6597189344,302.1266062746 L 200.45499625440002,301.9565282481 L 202.44302966560002,301.7335370578 L 204.4272835456,301.47653026219996 L 206.40397836320003,301.1817283496 L 208.37689364960002,300.85669034340003 L 210.3422498736,300.4900777085 L 212.30382656640003,300.09322898000005 L 214.2578441968,299.6623646462 L 216.20052323360002,299.1937051954 L 218.135643208,298.6910301393 L 220.06320412000002,298.1543394779 L 221.9794264384,297.58363321120004 L 223.8880896944,296.97891133919995 L 225.7816348256,296.3401738619 L 227.66762089440002,295.671200291 L 229.5384888384,294.9644316031 L 231.39801818880002,294.2274268216 L 233.24242941440002,293.4526269231 L 235.0717225152,292.6513704427 L 236.8896770224,291.8123188453 L 238.69251340480002,290.94681066600003 L 240.47645213120003,290.0435073697 L 240.47645213120003,215.1713805927 L 281.5486176816,215.1713805927 L 281.5486176816,176.40870859749998 L 182.1696243088,176.40870859749998 L 182.0637974352,215.1713805927 L 198.6597189344,215.1713805927 L 198.6597189344,302.1266062746" style="fill:none;stroke:#000000"/>
	<path d="M 132.6880018384,241.0459176909 L 174.5047350352,241.0459176909 L 174.5047350352,215.1713805927 L 174.6105619088,176.40870859749998 L 174.6105619088,144.99718685879998 L 215.57690058560001,144.99718685879998 L 215.57690058560001,106.23451486360001 L 112.2105017968,106.23451486360001 L 110.7931775968,107.56112347030002 L 109.3569557408,108.95198377589999 L 107.94341107200002,110.3693006634 L 106.5601026528,111.8092946211 L 105.1994714208,113.27574516070001 L 103.86151737600001,114.76487277049998 L 102.5537995808,116.2766774505 L 101.2763180352,117.8149387124 L 100.02151367680001,119.37209753280001 L 98.796945568,120.95193342339998 L 97.5988341776,122.5544463842 L 96.4309590368,124.17963641519998 L 95.2895406144,125.82372400469998 L 94.1821379728,127.48670915269999 L 93.1011920496,129.1685918592 L 92.050482376,130.86937212420003 L 91.030008952,132.59282945939998 L 90.0435513088,134.3314048414 L 89.083550384,136.0850982702 L 88.15756524,137.8576892575 L 87.26181634560001,139.6453982916 L 86.400083232,141.45200488420002 L 85.568586368,143.2699500119 L 84.77110528480002,145.10301318639998 L 132.6880018384,145.10301318639998 L 132.6880018384,241.0459176909" style="fill:none;stroke:#000000"/>
	<path d="M 60.0302940496,247.55423683829997 L 81.18810970720001,241.8849692883 L 80.8328337744,241.15552353019999 L 79.974880192,239.3489169376 L 79.1471628592,237.5271922982 L 78.349681776,235.69412912369998 L 77.5862164736,233.8459479024 L 76.84920788960001,231.986428146 L 76.1462150864,230.1155698545 L 75.4696790016,228.2333730279 L 74.8309382288,226.3360581545 L 74.2186541744,224.4311842577 L 73.64038590080001,222.5187513375 L 73.096133408,220.5949798822 L 72.58211716480001,218.65986989179999 L 72.10211670240001,216.7209803897 L 71.6523524896,214.77075235249998 L 71.2366040576,212.8129652919 L 70.85487140640001,210.85139871959998 L 70.507154536,208.88227312389998 L 70.1896739152,206.9055885048 L 69.9062090752,204.92890388569998 L 69.656760016,202.9446602432 L 69.44132673760001,200.9528575773 L 69.25990924,198.9648344231 L 69.108727992,196.9692522455 L 68.9915625248,194.97367006789997 L 68.9084128384,192.9743083786 L 68.85927893280001,190.9749466893 L 68.844160808,188.975585 L 68.85927893280001,187.0707111032 L 68.9084128384,185.0713494139 L 68.9877829936,183.0757672363 L 69.1049484608,181.07640554699998 L 69.25235017760001,179.08460288109998 L 69.4337676752,177.09280021520001 L 69.6492009536,175.104777061 L 69.8986500128,173.1205334185 L 70.1821148528,171.1400692877 L 70.4995954736,169.16338466859997 L 70.847312344,167.1942590729 L 71.23282452640001,165.2326925006 L 71.64857295840001,163.27490544 L 72.0983371712,161.3284569145 L 72.58211716480001,159.3857879007 L 73.09991293920001,157.454457422 L 50.7553244848,157.454457422 L 50.366032771200004,159.19681231570002 L 49.9578434016,161.15081986459998 L 49.576110750400005,163.1161659486 L 49.2246143488,165.08529154430002 L 48.9033541968,167.0581966517 L 48.6123302944,169.03866078250002 L 48.3477631104,171.0191249133 L 48.113432176,173.0071480675 L 47.9093374912,174.99517122170002 L 47.7316995248,176.9869738876 L 47.5805182768,178.98255606520001 L 47.4595732784,180.97813824280001 L 47.3650849984,182.9774999321 L 47.297053436800006,184.9768616214 L 47.2592581248,186.9762233107 L 47.24414,188.975585 L 47.24414,189.3951107987 L 47.263037656,191.394472488 L 47.3121715616,193.3938341773 L 47.3915417168,195.3931958666 L 47.4973685904,197.3925575559 L 47.6296521824,199.3881397335 L 47.792172024,201.3799423994 L 47.981148584,203.3717450653 L 48.200361393600005,205.3597682195 L 48.4498104528,207.344011862 L 48.725716230399996,209.3244759928 L 49.0280787264,211.3011606119 L 49.360677472000006,213.2740657193 L 49.71973293600001,215.2394118033 L 50.1090246496,217.2009783756 L 50.5247730816,219.15876543619999 L 50.970757763200005,221.1089934734 L 51.443199163200006,223.0516624872 L 51.942097281600006,224.9867724776 L 52.4674521184,226.9181029563 L 53.023043204800004,228.8380948999 L 53.6050910096,230.75430733180002 L 54.2135955328,232.6591812286 L 54.8485567744,234.556496102 L 55.509974734400004,236.44247244029998 L 56.197849412800004,238.3208897552 L 56.9121808096,240.18796853499998 L 57.6529689248,242.04370877969998 L 58.4202137584,243.891890001 L 59.2101357792,245.72873268719997 L 60.0302940496,247.55423683829997" style="fill:none;stroke:#000000"/>
	<path d="M 188.8707331264,330.70727375 L 190.6660104464,330.6959352149 L 192.6653824512,330.6581400979 L 194.66475445600003,330.593888399 L 196.6603469296,330.5031801182 L 198.6597189344,330.3897947672 L 200.107279384,330.2839684396 L 202.0990923264,330.0836543195 L 204.08712573760002,329.85688361750005 L 204.510433232,329.85688361750005 L 205.64807212320002,329.72460070799997 L 207.6323260032,329.4789324475 L 209.61280035200002,329.1992485817 L 211.5894951696,328.8968876457 L 213.562410456,328.5642906161 L 215.5315462112,328.20523700459995 L 217.49312290400002,327.81972681120004 L 219.44714053440003,327.4039805242 L 221.39737863360003,326.9617776553 L 223.34383720160002,326.49311820450004 L 225.27895717600003,325.9942226601 L 227.2102976192,325.46887053380004 L 229.13029946880002,324.9170618256 L 231.0465217872,324.3350170238 L 232.951405512,323.72651564010005 L 234.8449506432,323.08777816279996 L 236.7347162432,322.4263636153 L 238.6093637184,321.7347129742 L 240.47645213120003,321.0166057512 L 240.47645213120003,297.6025307697 L 239.11960043040003,298.2299297119 L 237.2940868608,299.04630423910004 L 235.45345516640003,299.828663161 L 233.60148487840002,300.5807859893 L 231.7343964656,301.302672724 L 229.85596945920003,301.99432336509994 L 227.96998339040002,302.6519584009 L 226.0688791968,303.2793573431 L 224.16021594080001,303.87274068000005 L 222.2439936224,304.439667435 L 220.31265317920003,304.968799073 L 218.37753320480002,305.4676946174 L 216.43107463680002,305.9363540682 L 214.48083653760003,306.3709979137 L 212.523039376,306.7716261539 L 210.557683152,307.1420183005 L 208.5847678656,307.4783948418 L 206.608073048,307.7807557778 L 204.6275986992,308.0528806202 L 202.639565288,308.2909898573 L 200.6515318768,308.4950834891 L 198.6597189344,308.6651615156 L 196.86444161440002,308.823901007 L 194.8650696096,308.9486248931 L 192.869477136,309.0317741505 L 190.8701051312,309.0771282909 L 188.8707331264,309.09224633770003 L 187.5743539248,309.08468731429997 L 185.57498192,309.0468921973 L 183.57938944640003,308.975081475 L 181.5800174416,308.86925514740005 L 179.584424968,308.7294132145 L 177.5926120256,308.5555556763 L 175.60457861440003,308.3514620445 L 173.6165452032,308.1095732957 L 171.6360708544,307.8374484533 L 169.6593760368,307.5313080056 L 167.6902402816,307.1949314643 L 165.7248840576,306.820759806 L 163.767086896,306.4163520541 L 161.8130692656,305.98170820859997 L 159.8703902288,305.5092692461 L 157.9352702544,305.01037370169996 L 156.0077093424,304.477462552 L 150.4102236352,325.3517056711 L 151.32864971680002,325.6087124667 L 153.25999016000003,326.1265055696 L 155.1988896656,326.61784209060005 L 157.1453482336,327.0827220297 L 159.0955863328,327.5173658752 L 161.0533834944,327.9293326505 L 163.01873971839998,328.3072838205 L 164.98409594240002,328.6625579203 L 166.96079076,328.98759592650003 L 168.9374855776,329.28617735079996 L 170.91795992640002,329.5545226815 L 172.9022138064,329.7964114303 L 174.8940267488,330.0118435972 L 176.88206016,330.1932601588 L 178.8776526336,330.3519996502 L 180.8732451072,330.480503048 L 182.872617112,330.57877035219997 L 184.86820958560003,330.6505810745 L 186.8675815904,330.6921557032 L 188.8707331264,330.70727375" style="fill:none;stroke:#000000"/>
	<path d="M 253.03205477760002,315.4796211107 L 254.249063824,314.8560016802 L 256.01410489439996,313.9186827786 L 257.76780737120004,312.9549072951 L 259.5101712544,311.9722342531 L 261.2336374816,310.95932511750004 L 262.9457651152,309.9237389117 L 264.64277462399997,308.8654756357 L 266.324666008,307.7807557778 L 267.987659736,306.6733588497 L 269.6393148704,305.5432848514 L 271.2720723488,304.39053378290004 L 272.8897117024,303.2151056442 L 274.4922329312,302.01700043529996 L 276.075856504,300.7962181562 L 277.6405824208,299.55275880690004 L 279.1901902128,298.2866223874 L 280.7209003488,296.9978088977 L 282.2327128288,295.6900978495 L 283.72562765280003,294.3597097311 L 285.203424352,293.0104240542 L 286.658543864,291.6384613071 L 288.09476572000005,290.2476010015 L 289.51208992000005,288.83406362569997 L 290.910516464,287.4054082031 L 292.2862658208,285.95407571029995 L 293.6431175216,284.483845659 L 294.97729203520004,282.9947180492 L 296.29256889280003,281.4904723926 L 297.5851685632,279.9635496658 L 298.85887057760004,278.4215088922 L 300.1098954048,276.86057056010003 L 301.3382430448,275.2807346695 L 302.5439134976,273.6857807321 L 303.7269067632,272.07570874789997 L 304.8872228416,270.4467392052 L 306.02486173280005,268.8026516157 L 307.1398234368,267.1396664677 L 308.2321079536,265.4653427846 L 309.3017152832,263.77212154299997 L 310.3448658944,262.0675617663 L 311.3653393184,260.3478839428 L 312.35935602399996,258.6130880725 L 313.3306955424,256.8631741554 L 314.2793578736,255.10192170320005 L 315.2015634864,253.3293307159 L 316.0973123808,251.54162168180002 L 316.9666045568,249.7387946009 L 317.8132195456,247.92840849659999 L 318.633377816,246.10290434550004 L 319.427079368,244.269841171 L 320.19810373280006,242.42165994969997 L 320.938891848,240.565919705 L 302.72911052640006,227.337628755 L 302.6232836528,227.6475487144 L 301.9580861616,229.5335250527 L 301.2550933584,231.4081628559 L 300.5180847744,233.2676826123 L 299.7470604096,235.1120843219 L 298.9533588576,236.9489270081 L 298.1332005872,238.7706516475 L 298.053830432,238.93317065059998 L 297.4642235648,240.1955275584 L 296.59493138880003,241.99835463929998 L 295.6954029632,243.78228416170003 L 294.765638288,245.55109563729997 L 293.801857832,247.30478906609997 L 292.8154001888,249.0433644481 L 291.79492676480004,250.76682178329997 L 290.7479966224,252.46760204830002 L 289.6708302304,254.15326426650003 L 288.56720712000003,255.8238084379 L 287.4371272912,257.47167553910003 L 286.2768112128,259.1044245935 L 285.0938179472,260.7144965777 L 283.880588432,262.3056710034 L 282.6446817296,263.8779478706 L 281.3823183088,265.4275476676 L 280.09727770079996,266.9582499061 L 279.17129255680004,268.0316312289 L 278.8651505296,268.3793463053 L 277.530976016,269.8722534268 L 276.1741243152,271.33870396640003 L 274.7945954272,272.78625694749996 L 273.3886098208,274.2111328584 L 271.9637265584,275.60955218739997 L 270.5123865776,276.9890739579 L 269.0383694096,278.33835963480004 L 267.5378955232,279.6649682415 L 267.41695052480003,279.77079456909996 L 265.89757898240003,281.07094659390003 L 264.3555302528,282.34842154849997 L 262.7983633984,283.6032194329 L 261.222298888,284.8315607354 L 259.62355719040005,286.03344545600004 L 258.0059178368,287.2126531064 L 256.3693808272,288.3578451515 L 254.71016663039998,289.4765806147 L 253.03205477760002,290.5613004726 L 253.03205477760002,315.4796211107" style="fill:none;stroke:#000000"/>
	<path d="M 54.266508969600004,145.10301318639998 L 77.1931452288,145.10301318639998 L 77.348106008,144.70994396959998 L 78.104012248,142.8579832366 L 78.8901547376,141.0211405504 L 79.7065334768,139.1956363993 L 80.5531484656,137.3814707833 L 81.42999970400001,135.58620272579998 L 82.337087192,133.8022732034 L 83.2706313984,132.03724123950002 L 84.2381913856,130.28354781070001 L 85.23220809120001,128.5487519404 L 86.2564610464,126.83285362859998 L 87.30717072,125.13207336360001 L 88.3881166432,123.44641114539996 L 89.499298816,121.78342599739997 L 90.63315817600001,120.13555889620001 L 91.7972537856,118.51036886519998 L 92.9878061136,116.90029688099997 L 94.20481516000001,115.31668147869999 L 95.4445013936,113.74818412320002 L 96.71442387680001,112.2023638379 L 98.01080307840002,110.67922062279997 L 99.3298594672,109.17497496619998 L 100.6753725744,107.6934063798 L 102.04356286880001,106.23451486360001 L 102.6974217664,105.5542027576 L 104.1034073728,104.13310635839997 L 105.53584969760001,102.73846654109997 L 106.9947487408,101.36650379399998 L 108.47254544,100.02099762879999 L 109.965460264,98.69060951039998 L 111.11821728000001,97.7268340269 L 111.2618394656,97.60588965250001 L 112.7925496016,96.3208556745 L 114.3421573936,95.05471925499997 L 115.91444237280001,93.81881892909998 L 117.505625008,92.60559567339999 L 119.11570529920002,91.41882899960001 L 120.7446832464,90.26229841940003 L 122.3963383808,89.13222442109999 L 124.0668911712,88.03238651640001 L 124.1122455456,88.00592993449999 L 125.7298848992,86.9741232404 L 127.42689440800001,85.91963947610002 L 129.1428015728,84.89539180540001 L 130.88138592479999,83.9013802283 L 118.1141295312,66.33043033499999 L 118.08389328160001,66.34932789349998 L 116.3642065856,67.36601654079999 L 114.6558584832,68.40538225830001 L 112.96262850560001,69.4712045577 L 111.2845166528,70.55970392729999 L 109.6215229248,71.67088036709998 L 107.97364732160001,72.80473387710002 L 106.3446693744,73.9612644573 L 104.7270300208,75.1404721077 L 103.13206785439999,76.34613634000002 L 101.54844428160001,77.57069813080001 L 99.9837183648,78.8179369918 L 98.437890104,80.08407341129997 L 96.9109594992,81.372886901 L 95.3991470192,82.68437746089998 L 93.9100117264,84.01854509100002 L 92.43599455840001,85.37161027959998 L 90.9808750464,86.74357302669998 L 89.54843272160001,88.13821284399998 L 88.1348880528,89.55175021980001 L 86.74024104,90.98418515409998 L 85.36449168320001,92.4392971586 L 84.0114195136,93.90952720989998 L 82.677245,95.40243433140002 L 81.3657476736,96.91045949970002 L 80.0731480032,98.4373822265 L 78.8070050512,99.98320251179997 L 77.5597597552,101.54792035559998 L 76.3351916464,103.12775624620001 L 75.1295211936,104.72648969530002 L 73.9503074592,106.34034119119998 L 72.9978655968,107.68584735640002 L 71.8640062368,109.32993494589998 L 70.7490445328,110.99292009390001 L 69.656760016,112.66724377700001 L 68.5909322176,114.36046501859998 L 67.54778160640001,116.06502479530002 L 66.5273081824,117.78470261880001 L 65.5295119456,119.51949848910002 L 64.5581724272,121.26941240619999 L 63.6132896272,123.03066485839997 L 62.6910840144,124.80703535740003 L 61.795335120000004,126.59474439150002 L 60.926042944,128.3937919607 L 60.0794279552,130.20795757669998 L 59.2592696848,132.02968221609999 L 58.46556813280001,133.8665249023 L 57.6983232992,135.7147061236 L 56.957535184,137.5704463683 L 56.2432037872,139.44130465979998 L 55.559108640000005,141.3197219747 L 54.897690680000004,143.205698313 L 54.266508969600004,145.10301318639998" style="fill:none;stroke:#000000"/>
	<path d="M 137.6921011472,80.4166704409 L 138.60296816640002,79.9895856188 L 140.4247022048,79.16565206819999 L 142.25777483680002,78.3681750995 L 144.1059655936,77.60093422439999 L 145.965494944,76.86392944290002 L 147.83636288800002,76.16094026669998 L 149.7185694256,75.4881871841 L 151.6121145568,74.84567019509998 L 153.51699828160002,74.23716881139998 L 155.4332206,73.65890352130002 L 157.3570019808,73.11087432479998 L 159.288342424,72.60064024530001 L 161.2310214608,72.11686274770001 L 163.18125956000003,71.67088036709998 L 165.13527719040002,71.25513408009998 L 167.10063341440002,70.87340339839999 L 169.06976916960002,70.52190881029998 L 171.04268445600002,70.20820933919998 L 173.0231588048,69.92474596170001 L 175.00741268480002,69.67529818950001 L 176.995446096,69.45608651089998 L 178.9872590384,69.27466994929998 L 180.982851512,69.12348948130001 L 182.97844398560002,69.01010413030001 L 184.97781599040002,68.92695487289998 L 186.9771879952,68.87782122080002 L 188.97656,68.85892366229997 L 190.29939592000002,68.86648268570002 L 192.2987679248,68.90427780269998 L 194.29436039840002,68.97986803670001 L 196.2937324032,69.08569436429998 L 198.2893248768,69.22175678549999 L 200.2811378192,69.39561432370002 L 202.26917123040002,69.60348746719998 L 204.2572046416,69.8415967043 L 206.2376789904,70.11750105839997 L 208.214373808,70.42364150609998 L 210.18350956320003,70.76001804739998 L 212.1488657872,71.1341897057 L 214.10666294880002,71.53859745759999 L 216.0606805792,71.97702081479999 L 218.003359616,72.44568026559998 L 219.9384795904,72.9483553217 L 221.8660405024,73.48126647139998 L 228.55203119520002,52.9131638 L 228.4424247904,52.8791481947 L 226.5186434096,52.33489850989998 L 224.58730296640002,51.81710540699998 L 222.6484034608,51.32576888599999 L 220.7019448928,50.860888946899976 L 218.7517067936,50.42624510139999 L 216.793909632,50.01805783779998 L 214.828553408,49.63632715609998 L 212.8594176528,49.2810530563 L 210.8865023664,48.956015050100014 L 208.90980754880002,48.6612131375 L 206.9293332,48.38908829509999 L 204.94129978880002,48.15097905799998 L 202.95326637760002,47.935546891099975 L 200.9614534352,47.75413032950002 L 198.9696404928,47.595390838100016 L 196.9740480192,47.47066695200001 L 194.97467601440002,47.368620136100006 L 192.9753040096,47.3005889255 L 190.97593200480003,47.2552347851 L 188.97656,47.24389625 L 188.352937352,47.24389625 L 186.349785816,47.2665733202 L 184.3504138112,47.31570697229997 L 182.3548213376,47.39507671799997 L 180.35544933280002,47.50090304559999 L 178.35985685920002,47.6369654668 L 176.36804391680002,47.799484469899966 L 174.37623097440002,47.99223956659998 L 172.3881975632,48.2114512452 L 170.4039436832,48.46089901740001 L 168.42346933439998,48.73680337149999 L 166.44677451680002,49.03916430749998 L 164.47385923040002,49.37176133710001 L 162.5085030064,49.730814948600006 L 160.5469263136,50.12010465369998 L 158.589129152,50.53585094069998 L 156.6388910528,50.981833321300016 L 154.696212016,51.454272283800016 L 152.7573125104,51.95316782819998 L 150.8297515984,52.47851995450002 L 148.9097497488,53.03410817439999 L 146.9935274304,53.61615297619997 L 145.0886437056,54.22465435989998 L 143.1950985744,54.86339183719997 L 141.30533297440002,55.52480638470001 L 139.4306854992,56.212677514100015 L 137.5635970864,56.93078473710001 L 135.704067736,57.6715690303 L 133.85965651040001,58.442589417099974 L 132.02280434719998,59.23628687410001 L 130.20107030879998,60.056440913 L 128.3868953328,60.90305153380002 L 126.58783848160002,61.776118736499996 L 124.80012022400001,62.675642521099995 L 137.6921011472,80.4166704409" style="fill:none;stroke:#000000"/>
	<path d="M 143.19131904320002,323.1028962096 L 148.7963638128,302.18329895010004 L 147.9535283552,301.8771585024 L 146.0826604112,301.1741693262 L 144.2231310608,300.4371645447 L 142.374940304,299.6661441579 L 140.5456472032,298.8611081658 L 138.727692696,298.02583608009996 L 136.9248563136,297.1603279008 L 135.13713805600003,296.2608041162 L 133.3683174544,295.3348237497 L 131.61083544640002,294.37860728960004 L 129.86847156320002,293.3959342476 L 128.14122580480003,292.3868046237 L 126.43287770239999,291.3474389062 L 124.7396477248,290.28539611850005 L 123.5604339904,289.5332732902 L 121.90877885600001,288.44099440890005 L 120.2609032528,287.3071408989 L 118.62814577440001,286.1506103187 L 117.01428595200001,284.9676231566 L 115.42310331680001,283.7581794126 L 113.8508183376,282.5222790867 L 112.3012105456,281.2561426672 L 110.7742799408,279.9635496658 L 109.55349136320001,278.8448142026 L 109.2057744928,278.5348942432 L 107.7241982624,277.18938807800004 L 106.26907875040001,275.82120484259997 L 104.83285689440001,274.42656502529996 L 103.4230917568,273.0092481378 L 102.03222427520001,271.56925418009996 L 100.6715930432,270.1065831522 L 99.3298594672,268.62123505410005 L 99.21647353120001,268.5002906797 L 97.86718089280001,267.0262811167 L 97.1868652768,266.2212451246 L 95.9131632624,264.6754248393 L 94.66969749760001,263.1107069955 L 93.4564679824,261.5195325698 L 92.2659156544,259.91324009730005 L 91.105599576,258.28427055459997 L 89.96418115360001,256.6401829651 L 88.85299898080001,254.9809773288 L 88.30874648800001,254.14192573139997 L 87.23913915840001,252.44870448979998 L 87.0199263488,252.1009894134 L 85.92386230080001,250.42666573030002 L 84.869373096,248.7258854653 L 63.348722443199996,254.48964080780001 L 64.2104555568,256.1072718154 L 65.17045648160001,257.8609652442 L 66.16069365599999,259.59954062620005 L 67.16982848640001,261.3267774731 L 68.2091995664,263.0351167615 L 69.2674683024,264.7321175148 L 70.3521937568,266.4140002213 L 71.4595963984,268.08076488100005 L 72.5896762272,269.7286319822 L 73.7424332432,271.3613810366 L 74.9178674464,272.9790120442 L 76.119758368,274.581525005 L 77.34054694560001,276.1651404073 L 78.5840127104,277.72985825110004 L 79.8501556624,279.2794580481 L 81.1351962704,280.8101602866 L 82.4429140656,282.32196496660004 L 83.773309048,283.8186515998 L 85.1226016864,285.29266116279996 L 86.4907919808,286.75155267900004 L 87.8816594624,288.187767125 L 89.29520413120001,289.6050840125 L 90.7238669248,291.0035033415 L 92.1752069056,292.383025112 L 93.6416650112,293.73986981229996 L 95.130800304,295.07781695410006 L 96.6350537216,296.39308702569997 L 98.1619843264,297.68568002710003 L 99.704033056,298.95937547 L 101.2649794416,300.2103938427 L 102.841043952,301.4387351452 L 104.4360061184,302.6481788892 L 106.04608640960001,303.8311660513 L 107.67506435680001,304.9914761432 L 109.3191604288,306.13288867660003 L 110.9783746256,307.24784462810004 L 112.6527069472,308.3401235094 L 114.34593692480001,309.4097253205 L 116.05050549600001,310.4528705497 L 117.77019219200001,311.4733387087 L 119.5049970128,312.4673502858 L 121.25491995840001,313.4386847927 L 123.01618149760002,314.3873422294 L 124.7925611616,315.3057635725 L 126.5802794192,316.20528735709996 L 128.3793362704,317.07457504810003 L 130.19351124640002,317.9211856689 L 132.01524528480002,318.7375601961 L 133.852097448,319.5312576531 L 135.70028820480002,320.29849852819996 L 137.556038024,321.03928282140004 L 139.426905968,321.7536105327 L 141.30533297440002,322.4414816621 L 143.19131904320002,323.1028962096" style="fill:none;stroke:#000000"/>
	<path d="M 293.1177626848,129.4596142601 L 314.0714836576,122.6527136884 L 313.2324277312,121.09933437969998 L 312.25730868159997,119.35319997429998 L 311.2595124448,117.62218361569998 L 310.2352594896,115.90250579219999 L 309.1883293472,114.19794601550001 L 308.1187220176,112.5085042856 L 307.0226579696,110.83418060250001 L 305.9039167344,109.1787544779 L 304.76249831200005,107.5346668884 L 303.60218223360005,105.90947685740002 L 302.4154094368,104.29940487320002 L 301.2059594528,102.70445093579997 L 299.9738322816,101.12839455690002 L 298.7228074544,99.56745622479998 L 297.44910544000004,98.02541545119998 L 296.1527262384,96.50227223610001 L 294.8374493808,94.99802657950002 L 293.499495336,93.51267848140002 L 292.138864104,92.04244843009998 L 290.7631147472,90.59489544899999 L 289.360908672,89.16624002639999 L 287.943584472,87.75648216229997 L 286.507362616,86.3656218567 L 285.0484635728,84.9936591096 L 283.57066687360003,83.64815294440002 L 282.0777520496,82.317764826 L 280.5621600384,81.0100537778 L 279.0314499024,79.72501979979998 L 277.4818421104,78.45888338030001 L 275.9171161936,77.21920354269999 L 274.3297130896,75.99842126360002 L 272.730971392,74.80031605469999 L 271.10955250719996,73.62488791600002 L 269.47679502880004,72.4721368475 L 267.82513989439997,71.34206284920002 L 266.1621461664,70.23466592109999 L 264.48025478240004,69.1537255749 L 262.7832452736,68.09546229889999 L 261.07111764,67.05987609309999 L 259.34387188159997,66.04696695749998 L 257.6052875296,65.06429391550002 L 255.8515850528,64.10051843199997 L 254.0827644512,63.166979042099975 L 252.302605256,62.25233721070001 L 250.51110746720002,61.36793147289998 L 248.7044915536,60.509982317000016 L 246.8865370464,59.674710231300004 L 245.05724394560005,58.86589472750001 L 243.2166122512,58.08353580559998 L 241.36464196320003,57.32763346559997 L 239.50133308160002,56.59818770749998 L 237.63046513760003,55.895198531300004 L 235.7482586,55.218665937 L 229.06982696960003,75.77543007329997 L 229.57628415040003,75.96062614659999 L 231.4282544384,76.71652848660001 L 233.272665664,77.4913283851 L 234.05124909120002,77.80124834449998 L 235.9032193792,78.5609301962 L 236.2887315616,78.727228711 L 238.11802466240002,79.53604421479999 L 239.93597916960002,80.3713163005 L 241.738815552,81.2368244798 L 243.0729900656,81.90201853900001 L 244.8493697296,82.81666037039997 L 246.6144108,83.76153829539997 L 248.1753571856,84.63082598639998 L 249.9063824752,85.62861707519997 L 251.61473057760003,86.65286474589998 L 253.3079605552,87.7149075336 L 254.986072408,88.80340690319998 L 256.6452866048,89.91836285469999 L 256.84560175840005,90.05442527589999 L 258.482138768,91.20717634440003 L 259.58954140960003,92.00465331310001 L 261.1996217008,93.1951994986 L 262.7870248048,94.40842275429999 L 264.3555302528,95.65188210359997 L 265.9013585136,96.9180185231 L 266.0941146048,97.0843170379 L 266.39269756960005,97.33754432180002 L 267.91206911200004,98.64147585830001 L 269.404983936,99.97186397669998 L 270.8752215728,101.32492916529999 L 272.3265615536,102.70067142410001 L 273.75144481600006,104.10287026479999 L 275.1536508912,105.53152568739999 L 276.5331797792,106.97907866849997 L 277.8862519488,108.44930871980002 L 279.21664693120005,109.94599535300001 L 280.5205851952,111.4615795447 L 281.80184627200003,112.99984080659999 L 283.05287109920005,114.55699962700001 L 284.2812187392,116.13683551759998 L 285.48310966080004,117.73556896669999 L 286.6547643328,119.356979486 L 287.8037418176,120.99350805210003 L 288.92248305280003,122.6527136884 L 290.0109880384,124.32703737149998 L 291.0768158368,126.02025861310001 L 292.1124073856,127.73237741319997 L 293.1177626848,129.4596142601" style="fill:none;stroke:#000000"/>
	<path d="M 323.5883432192,233.1429587262 L 323.8755875904,232.26233250009997 L 324.47275352,230.35367909160001 L 325.0472422624,228.43746665970002 L 325.5914947552,226.51369520440002 L 326.11307006080006,224.5823647257 L 326.6044091168,222.6434752236 L 327.06929145440006,220.69702669810002 L 327.5077170736,218.7467986609 L 327.9159064432,216.7890116003 L 328.3014186256,214.8236655163 L 328.65291502720004,212.85831943230002 L 328.9817342416,210.88541432489998 L 329.2803172064,208.9049501941 L 329.5524434528,206.9244860633 L 329.7943334496,204.9402424208 L 330.009766728,202.9522192666 L 330.1949637568,200.9604166007 L 330.349924536,198.9648344231 L 330.47842859680003,196.9692522455 L 330.5804759392,194.97367006789997 L 330.652287032,192.9743083786 L 330.6938618752,190.9749466893 L 330.70898,188.975585 L 330.7014209376,187.5582681125 L 330.6636256256,185.5589064232 L 330.5993735952,183.5595447339 L 330.5048853152,181.5639625563 L 330.3839403168,179.564600867 L 330.23275906879996,177.5727982011 L 330.05134157120006,175.58099553519997 L 329.8472468864,173.5891928693 L 329.60913642080004,171.6049492268 L 329.348348768,169.6207055843 L 329.0535453344,167.6440209652 L 328.7322851824,165.67111585779998 L 328.384568312,163.7019902621 L 328.0103947232,161.7366441781 L 327.6059848848,159.7788571175 L 327.17133879680006,157.82484956859997 L 326.7102359904,155.8784010431 L 326.2226764656,153.939511541 L 325.70866022240006,152.0044015506 L 325.16818726080004,150.0806300953 L 324.5974780496,148.1644176634 L 324.00031212000005,146.2557642549 L 323.376689472,144.35466986979998 L 322.7266101056,142.46491401979998 L 322.0500740208,140.58271719319998 L 321.3470812176,138.70807939 L 320.617631696,136.8485596336 L 319.861725456,134.9928193889 L 319.0831420288,133.15219719100003 L 318.2781018832,131.3229135282 L 317.4466050192,129.5049684005 L 296.7347740432,136.2324992265 L 296.938868728,136.6784816071 L 297.2147745056,137.25674689719997 L 298.05760996320004,139.0709125132 L 298.87020917120003,140.900196176 L 299.65635166080006,142.68034618669998 L 300.3480058704,144.40002401019999 L 301.0623372672,146.26710279 L 301.7048575712,147.9792215901 L 302.3738345936,149.8651979284 L 303.0163548976,151.7587332901 L 303.6248594208,153.66360718689998 L 304.1993481632,155.5798196188 L 304.743600656,157.5035910741 L 305.2576168992,159.4387010645 L 305.38234142880003,159.90736051529998 L 305.73005829920004,161.35113398469997 L 306.1722634496,163.3013620219 L 306.5804528192,165.25914908250002 L 306.6787206304,165.731588045 L 306.9659650016,167.2244951665 L 307.3099023408,169.1936207622 L 307.6236034304,171.16652586959998 L 307.6840759296,171.59361069169998 L 307.8881706144,173.026045626 L 308.1413992048,175.0102892685 L 308.36439154560003,176.9983124227 L 308.5571476368,178.9863355769 L 308.7158879472,180.9819177545 L 308.8406124768,182.9774999321 L 308.92754169439996,184.9768616214 L 308.9842346624,186.9762233107 L 309.00313231840005,188.975585 L 308.9993527872,190.0073916941 L 308.96533700640003,192.0067533834 L 308.8973054448,194.0061150727 L 308.7990376336,196.0016972503 L 308.66675404160003,197.9972794279 L 308.5004546688,199.9890820938 L 308.3001395152,201.98088475970002 L 308.069588112,203.96890791389998 L 307.805020928,205.9493720447 L 307.5064379632,207.92605666379998 L 307.1776187488,209.8989617712 L 306.8110042224,211.8680873669 L 306.41793297760006,213.8258744275 L 305.98706642080003,215.7798819764 L 305.52596361440004,217.7263305019 L 305.03084502720003,219.665220004 L 323.5883432192,233.1429587262" style="fill:none;stroke:#000000"/>
</svg>
